<svg xmlns="http://www.w3.org/2000/svg" viewBox="0 0 1280 2776" font-family="Segoe UI, sans-serif"><defs>
<radialGradient id="cream" cx="0.4" cy="0.35" r="0.95"><stop offset="0" stop-color="#fffaf0"/><stop offset="0.65" stop-color="#fff3e0"/><stop offset="1" stop-color="#efd6b0"/></radialGradient>
<radialGradient id="tan" cx="0.4" cy="0.35" r="0.95"><stop offset="0" stop-color="#e3b877"/><stop offset="0.7" stop-color="#d3a35d"/><stop offset="1" stop-color="#b5854a"/></radialGradient>
<radialGradient id="wool" cx="0.4" cy="0.35" r="0.95"><stop offset="0" stop-color="#fffdf6"/><stop offset="0.7" stop-color="#f7ecd8"/><stop offset="1" stop-color="#e3d2b4"/></radialGradient>
<radialGradient id="face" cx="0.4" cy="0.35" r="0.95"><stop offset="0" stop-color="#7d5940"/><stop offset="1" stop-color="#5a3d2a"/></radialGradient>
<radialGradient id="brown" cx="0.4" cy="0.35" r="0.95"><stop offset="0" stop-color="#c98a44"/><stop offset="0.7" stop-color="#b5722f"/><stop offset="1" stop-color="#96591f"/></radialGradient>
<radialGradient id="dogfur" cx="0.4" cy="0.35" r="0.95"><stop offset="0" stop-color="#e8a860"/><stop offset="0.7" stop-color="#d98f47"/><stop offset="1" stop-color="#b06a2e"/></radialGradient>
<radialGradient id="foxfur" cx="0.4" cy="0.35" r="0.95"><stop offset="0" stop-color="#f08a3c"/><stop offset="0.7" stop-color="#e0702a"/><stop offset="1" stop-color="#c9531f"/></radialGradient>
<linearGradient id="pail" x1="0" y1="0" x2="1" y2="0"><stop offset="0" stop-color="#aeb9c6"/><stop offset="0.5" stop-color="#dfe6ee"/><stop offset="1" stop-color="#93a0ae"/></linearGradient>
<radialGradient id="glow"><stop offset="0" stop-color="#ffd75e" stop-opacity="0.55"/><stop offset="1" stop-color="#ffd75e" stop-opacity="0"/></radialGradient>
<filter id="dim"><feColorMatrix type="saturate" values="0.4"/><feComponentTransfer><feFuncR type="linear" slope="0.75"/><feFuncG type="linear" slope="0.75"/><feFuncB type="linear" slope="0.78"/></feComponentTransfer></filter>
<radialGradient id="ground" cx="0.5" cy="0.5" r="0.5"><stop offset="0" stop-color="#000" stop-opacity="0.3"/><stop offset="1" stop-color="#000" stop-opacity="0"/></radialGradient>
</defs><rect width="1280" height="2776" fill="#14100a"/><text x="80" y="64" fill="#f6eedc" font-size="34" font-weight="800" letter-spacing="2">STATEK - SET ZVIRAT VE STYLU B</text><text x="80" y="94" fill="#9e8a69" font-size="15" letter-spacing="3">MEKKA ILUSTRACE - 5 PRODUCENTU x 3 STAVY + PES + LISKA</text><line x1="80" y1="110" x2="1200" y2="110" stroke="#3f301c" stroke-width="1"/><text x="80" y="160" fill="#ffd75e" font-size="20" font-weight="800" letter-spacing="2">SLEPICE</text><text x="80" y="178" fill="#9e8a69" font-size="12.5">produkt: vejce</text><g transform="translate(80,190)"><rect width="360" height="300" rx="18" fill="#1d150c" stroke="#3f301c"/><ellipse cx="180" cy="258" rx="110" ry="16" fill="url(#ground)"/><g transform="translate(0,24) scale(1,0.9)" filter="url(#dim)"><ellipse cx="104" cy="128" rx="27" ry="16" fill="#e8c9a0" transform="rotate(-32 104 128)"/><ellipse cx="96" cy="146" rx="25" ry="14" fill="#e8c9a0" transform="rotate(-8 96 146)"/><ellipse cx="101" cy="162" rx="22" ry="12" fill="#e8c9a0" transform="rotate(14 101 162)"/><ellipse cx="170" cy="165" rx="78" ry="60" fill="url(#cream)"/><ellipse cx="213" cy="125" rx="42" ry="48" fill="url(#cream)"/><circle cx="238" cy="95" r="36" fill="url(#cream)"/><g transform="rotate(14 238 62)"><g fill="#ff6b6b"><circle cx="222" cy="60" r="11"/><circle cx="238" cy="52" r="12"/><circle cx="254" cy="60" r="11"/></g></g><polygon points="270,88 297,97 270,107" fill="#ffb340"/><polygon points="270,97 297,97 270,107" fill="#e8931f"/><ellipse cx="261" cy="118" rx="8" ry="12" fill="#ff6b6b"/><path d="M240 90 q7 5 14 0" stroke="#33220f" stroke-width="3.5" fill="none" stroke-linecap="round"/><ellipse cx="152" cy="170" rx="42" ry="30" fill="#f0d2ab" transform="rotate(-14 152 170)"/><path d="M120 178 q30 16 62 6 M126 190 q26 12 50 4" stroke="#d9b586" stroke-width="3" fill="none" stroke-linecap="round"/></g><g fill="#9e8a69" font-family="Segoe UI" font-weight="600"><text x="290" y="66" font-size="26">z</text><text x="306" y="48" font-size="20">z</text><text x="318" y="34" font-size="15">z</text></g><text x="16" y="28" fill="#9e8a69" font-size="11" letter-spacing="2">SLE.1</text></g><text x="260.0" y="516" fill="#f6eedc" font-size="13" font-weight="700" letter-spacing="2" text-anchor="middle">HLADOVE</text><g transform="translate(460,190)"><rect width="360" height="300" rx="18" fill="#1d150c" stroke="#3f301c"/><ellipse cx="180" cy="258" rx="110" ry="16" fill="url(#ground)"/><ellipse cx="104" cy="128" rx="27" ry="16" fill="#e8c9a0" transform="rotate(-32 104 128)"/><ellipse cx="96" cy="146" rx="25" ry="14" fill="#e8c9a0" transform="rotate(-8 96 146)"/><ellipse cx="101" cy="162" rx="22" ry="12" fill="#e8c9a0" transform="rotate(14 101 162)"/><ellipse cx="170" cy="165" rx="78" ry="60" fill="url(#cream)"/><ellipse cx="213" cy="125" rx="42" ry="48" fill="url(#cream)"/><circle cx="238" cy="95" r="36" fill="url(#cream)"/><g fill="#ff6b6b"><circle cx="222" cy="60" r="11"/><circle cx="238" cy="52" r="12"/><circle cx="254" cy="60" r="11"/></g><polygon points="270,88 297,97 270,107" fill="#ffb340"/><polygon points="270,97 297,97 270,107" fill="#e8931f"/><ellipse cx="261" cy="118" rx="8" ry="12" fill="#ff6b6b"/><circle cx="247" cy="90" r="5" fill="#33220f"/><circle cx="249" cy="88" r="1.75" fill="#fff"/><ellipse cx="152" cy="170" rx="42" ry="30" fill="#f0d2ab" transform="rotate(-14 152 170)"/><path d="M120 178 q30 16 62 6 M126 190 q26 12 50 4" stroke="#d9b586" stroke-width="3" fill="none" stroke-linecap="round"/><g stroke="#d98a2b" stroke-width="5" stroke-linecap="round"><path d="M150 222 L148 250 M140 250 L158 250"/><path d="M192 222 L194 250 M184 250 L202 250"/></g><text x="16" y="28" fill="#9e8a69" font-size="11" letter-spacing="2">SLE.2</text></g><text x="640.0" y="516" fill="#f6eedc" font-size="13" font-weight="700" letter-spacing="2" text-anchor="middle">VYRABI</text><g transform="translate(840,190)"><rect width="360" height="300" rx="18" fill="#1d150c" stroke="#3f301c"/><ellipse cx="180" cy="258" rx="110" ry="16" fill="url(#ground)"/><g transform="rotate(-2 180 170)"><ellipse cx="104" cy="128" rx="27" ry="16" fill="#e8c9a0" transform="rotate(-32 104 128)"/><ellipse cx="96" cy="146" rx="25" ry="14" fill="#e8c9a0" transform="rotate(-8 96 146)"/><ellipse cx="101" cy="162" rx="22" ry="12" fill="#e8c9a0" transform="rotate(14 101 162)"/><ellipse cx="170" cy="165" rx="78" ry="60" fill="url(#cream)"/><ellipse cx="213" cy="125" rx="42" ry="48" fill="url(#cream)"/><circle cx="238" cy="95" r="36" fill="url(#cream)"/><g fill="#ff6b6b"><circle cx="222" cy="60" r="11"/><circle cx="238" cy="52" r="12"/><circle cx="254" cy="60" r="11"/></g><polygon points="270,88 297,97 270,107" fill="#ffb340"/><polygon points="270,97 297,97 270,107" fill="#e8931f"/><ellipse cx="261" cy="118" rx="8" ry="12" fill="#ff6b6b"/><path d="M240 90 q7 -7 14 0" stroke="#33220f" stroke-width="3.5" fill="none" stroke-linecap="round"/><ellipse cx="152" cy="170" rx="42" ry="30" fill="#f0d2ab" transform="rotate(-14 152 170)"/><path d="M120 178 q30 16 62 6 M126 190 q26 12 50 4" stroke="#d9b586" stroke-width="3" fill="none" stroke-linecap="round"/><g stroke="#d98a2b" stroke-width="5" stroke-linecap="round"><path d="M150 222 L148 250 M140 250 L158 250"/><path d="M192 222 L194 250 M184 250 L202 250"/></g></g><circle cx="80" cy="225" r="42" fill="url(#glow)"/><ellipse cx="80" cy="228" rx="20" ry="26" fill="#fff7ea" stroke="#e8d3ae" stroke-width="2"/><path d="M48 181 L50.1 185.9 L55 188 L50.1 190.1 L48 195 L45.9 190.1 L41 188 L45.9 185.9 Z" fill="#ffd75e"/><path d="M116 187 L117.5 190.5 L121 192 L117.5 193.5 L116 197 L114.5 193.5 L111 192 L114.5 190.5 Z" fill="#ffd75e"/><text x="16" y="28" fill="#9e8a69" font-size="11" letter-spacing="2">SLE.3</text></g><text x="1020.0" y="516" fill="#f6eedc" font-size="13" font-weight="700" letter-spacing="2" text-anchor="middle">HOTOVO</text><text x="80" y="596" fill="#ffd75e" font-size="20" font-weight="800" letter-spacing="2">KOZA</text><text x="80" y="614" fill="#9e8a69" font-size="12.5">produkt: mleko (kyblik)</text><g transform="translate(80,626)"><rect width="360" height="300" rx="18" fill="#1d150c" stroke="#3f301c"/><ellipse cx="180" cy="258" rx="110" ry="16" fill="url(#ground)"/><g transform="translate(0,24) scale(1,0.9)" filter="url(#dim)"><path d="M262 62 q26 -26 44 -14 q-22 2 -30 24 z" fill="#8a6a3f"/><path d="M250 60 q10 -30 32 -30 q-16 10 -18 34 z" fill="#9d7c4e"/><path d="M92 128 q-16 -10 -10 -28 q10 12 22 12 z" fill="#c99a56"/><ellipse cx="170" cy="160" rx="85" ry="52" fill="url(#tan)"/><ellipse cx="240" cy="112" rx="38" ry="42" fill="url(#tan)"/><ellipse cx="268" cy="92" rx="30" ry="26" fill="url(#tan)"/><ellipse cx="238" cy="84" rx="10" ry="20" fill="#b5854a" transform="rotate(24 238 84)"/><ellipse cx="290" cy="102" rx="15" ry="12" fill="#e9c78f"/><circle cx="295" cy="99" r="2.2" fill="#7a5a35"/><path d="M284 112 q4 18 -6 24 q-4 -14 -2 -22 z" fill="#b5854a"/><path d="M261 88 q7 5 14 0" stroke="#33220f" stroke-width="3.5" fill="none" stroke-linecap="round"/><ellipse cx="150" cy="165" rx="44" ry="30" fill="#c08e4e" opacity="0.55" transform="rotate(-10 150 165)"/></g><g fill="#9e8a69" font-family="Segoe UI" font-weight="600"><text x="290" y="66" font-size="26">z</text><text x="306" y="48" font-size="20">z</text><text x="318" y="34" font-size="15">z</text></g><text x="16" y="28" fill="#9e8a69" font-size="11" letter-spacing="2">KOZ.1</text></g><text x="260.0" y="952" fill="#f6eedc" font-size="13" font-weight="700" letter-spacing="2" text-anchor="middle">HLADOVE</text><g transform="translate(460,626)"><rect width="360" height="300" rx="18" fill="#1d150c" stroke="#3f301c"/><ellipse cx="180" cy="258" rx="110" ry="16" fill="url(#ground)"/><path d="M262 62 q26 -26 44 -14 q-22 2 -30 24 z" fill="#8a6a3f"/><path d="M250 60 q10 -30 32 -30 q-16 10 -18 34 z" fill="#9d7c4e"/><rect x="112" y="195" width="11" height="53" rx="5" fill="#c99a56"/><rect x="111" y="238" width="13" height="10" rx="4" fill="#8a6a3f"/><rect x="142" y="195" width="11" height="53" rx="5" fill="#c99a56"/><rect x="141" y="238" width="13" height="10" rx="4" fill="#8a6a3f"/><rect x="202" y="195" width="11" height="53" rx="5" fill="#c99a56"/><rect x="201" y="238" width="13" height="10" rx="4" fill="#8a6a3f"/><rect x="232" y="195" width="11" height="53" rx="5" fill="#c99a56"/><rect x="231" y="238" width="13" height="10" rx="4" fill="#8a6a3f"/><path d="M92 128 q-16 -10 -10 -28 q10 12 22 12 z" fill="#c99a56"/><ellipse cx="170" cy="160" rx="85" ry="52" fill="url(#tan)"/><ellipse cx="240" cy="112" rx="38" ry="42" fill="url(#tan)"/><ellipse cx="268" cy="92" rx="30" ry="26" fill="url(#tan)"/><ellipse cx="238" cy="84" rx="10" ry="20" fill="#b5854a" transform="rotate(24 238 84)"/><ellipse cx="290" cy="102" rx="15" ry="12" fill="#e9c78f"/><circle cx="295" cy="99" r="2.2" fill="#7a5a35"/><path d="M284 112 q4 18 -6 24 q-4 -14 -2 -22 z" fill="#b5854a"/><circle cx="268" cy="88" r="5" fill="#33220f"/><circle cx="270" cy="86" r="1.75" fill="#fff"/><ellipse cx="150" cy="165" rx="44" ry="30" fill="#c08e4e" opacity="0.55" transform="rotate(-10 150 165)"/><text x="16" y="28" fill="#9e8a69" font-size="11" letter-spacing="2">KOZ.2</text></g><text x="640.0" y="952" fill="#f6eedc" font-size="13" font-weight="700" letter-spacing="2" text-anchor="middle">VYRABI</text><g transform="translate(840,626)"><rect width="360" height="300" rx="18" fill="#1d150c" stroke="#3f301c"/><ellipse cx="180" cy="258" rx="110" ry="16" fill="url(#ground)"/><g transform="rotate(-2 180 170)"><path d="M262 62 q26 -26 44 -14 q-22 2 -30 24 z" fill="#8a6a3f"/><path d="M250 60 q10 -30 32 -30 q-16 10 -18 34 z" fill="#9d7c4e"/><rect x="112" y="195" width="11" height="53" rx="5" fill="#c99a56"/><rect x="111" y="238" width="13" height="10" rx="4" fill="#8a6a3f"/><rect x="142" y="195" width="11" height="53" rx="5" fill="#c99a56"/><rect x="141" y="238" width="13" height="10" rx="4" fill="#8a6a3f"/><rect x="202" y="195" width="11" height="53" rx="5" fill="#c99a56"/><rect x="201" y="238" width="13" height="10" rx="4" fill="#8a6a3f"/><rect x="232" y="195" width="11" height="53" rx="5" fill="#c99a56"/><rect x="231" y="238" width="13" height="10" rx="4" fill="#8a6a3f"/><path d="M92 128 q-16 -10 -10 -28 q10 12 22 12 z" fill="#c99a56"/><ellipse cx="170" cy="160" rx="85" ry="52" fill="url(#tan)"/><ellipse cx="240" cy="112" rx="38" ry="42" fill="url(#tan)"/><ellipse cx="268" cy="92" rx="30" ry="26" fill="url(#tan)"/><ellipse cx="238" cy="84" rx="10" ry="20" fill="#b5854a" transform="rotate(24 238 84)"/><ellipse cx="290" cy="102" rx="15" ry="12" fill="#e9c78f"/><circle cx="295" cy="99" r="2.2" fill="#7a5a35"/><path d="M284 112 q4 18 -6 24 q-4 -14 -2 -22 z" fill="#b5854a"/><path d="M261 88 q7 -7 14 0" stroke="#33220f" stroke-width="3.5" fill="none" stroke-linecap="round"/><ellipse cx="150" cy="165" rx="44" ry="30" fill="#c08e4e" opacity="0.55" transform="rotate(-10 150 165)"/></g><circle cx="80" cy="225" r="42" fill="url(#glow)"/><path d="M62 206 L98 206 L94 250 L66 250 Z" fill="url(#pail)"/><ellipse cx="80" cy="206" rx="18" ry="6" fill="#fffdf6"/><path d="M62 206 a18 12 0 0 1 36 0" stroke="#8d9aa8" stroke-width="3" fill="none"/><path d="M48 181 L50.1 185.9 L55 188 L50.1 190.1 L48 195 L45.9 190.1 L41 188 L45.9 185.9 Z" fill="#ffd75e"/><path d="M116 187 L117.5 190.5 L121 192 L117.5 193.5 L116 197 L114.5 193.5 L111 192 L114.5 190.5 Z" fill="#ffd75e"/><text x="16" y="28" fill="#9e8a69" font-size="11" letter-spacing="2">KOZ.3</text></g><text x="1020.0" y="952" fill="#f6eedc" font-size="13" font-weight="700" letter-spacing="2" text-anchor="middle">HOTOVO</text><text x="80" y="1032" fill="#ffd75e" font-size="20" font-weight="800" letter-spacing="2">OVCE</text><text x="80" y="1050" fill="#9e8a69" font-size="12.5">produkt: vlna (klubko)</text><g transform="translate(80,1062)"><rect width="360" height="300" rx="18" fill="#1d150c" stroke="#3f301c"/><ellipse cx="180" cy="258" rx="110" ry="16" fill="url(#ground)"/><g transform="translate(0,24) scale(1,0.9)" filter="url(#dim)"><circle cx="120" cy="150" r="42" fill="url(#wool)"/><circle cx="160" cy="130" r="46" fill="url(#wool)"/><circle cx="205" cy="138" r="44" fill="url(#wool)"/><circle cx="230" cy="160" r="40" fill="url(#wool)"/><circle cx="205" cy="185" r="42" fill="url(#wool)"/><circle cx="160" cy="192" r="44" fill="url(#wool)"/><circle cx="120" cy="180" r="40" fill="url(#wool)"/><circle cx="168" cy="160" r="52" fill="url(#wool)"/><ellipse cx="262" cy="112" rx="27" ry="30" fill="url(#face)"/><ellipse cx="240" cy="106" rx="16" ry="8" fill="#5a3d2a" transform="rotate(-24 240 106)"/><ellipse cx="284" cy="112" rx="16" ry="8" fill="#5a3d2a" transform="rotate(24 284 112)"/><circle cx="252" cy="86" r="14" fill="url(#wool)"/><circle cx="268" cy="82" r="12" fill="url(#wool)"/><path d="M251 110 q7 5 14 0" stroke="#33220f" stroke-width="3.5" fill="none" stroke-linecap="round"/><ellipse cx="266" cy="128" rx="8" ry="5" fill="#8a6a50"/></g><g fill="#9e8a69" font-family="Segoe UI" font-weight="600"><text x="290" y="66" font-size="26">z</text><text x="306" y="48" font-size="20">z</text><text x="318" y="34" font-size="15">z</text></g><text x="16" y="28" fill="#9e8a69" font-size="11" letter-spacing="2">OVC.1</text></g><text x="260.0" y="1388" fill="#f6eedc" font-size="13" font-weight="700" letter-spacing="2" text-anchor="middle">HLADOVE</text><g transform="translate(460,1062)"><rect width="360" height="300" rx="18" fill="#1d150c" stroke="#3f301c"/><ellipse cx="180" cy="258" rx="110" ry="16" fill="url(#ground)"/><rect x="112" y="195" width="11" height="53" rx="5" fill="#6a4a33"/><rect x="111" y="238" width="13" height="10" rx="4" fill="#4a3222"/><rect x="142" y="195" width="11" height="53" rx="5" fill="#6a4a33"/><rect x="141" y="238" width="13" height="10" rx="4" fill="#4a3222"/><rect x="202" y="195" width="11" height="53" rx="5" fill="#6a4a33"/><rect x="201" y="238" width="13" height="10" rx="4" fill="#4a3222"/><rect x="232" y="195" width="11" height="53" rx="5" fill="#6a4a33"/><rect x="231" y="238" width="13" height="10" rx="4" fill="#4a3222"/><circle cx="120" cy="150" r="42" fill="url(#wool)"/><circle cx="160" cy="130" r="46" fill="url(#wool)"/><circle cx="205" cy="138" r="44" fill="url(#wool)"/><circle cx="230" cy="160" r="40" fill="url(#wool)"/><circle cx="205" cy="185" r="42" fill="url(#wool)"/><circle cx="160" cy="192" r="44" fill="url(#wool)"/><circle cx="120" cy="180" r="40" fill="url(#wool)"/><circle cx="168" cy="160" r="52" fill="url(#wool)"/><ellipse cx="262" cy="112" rx="27" ry="30" fill="url(#face)"/><ellipse cx="240" cy="106" rx="16" ry="8" fill="#5a3d2a" transform="rotate(-24 240 106)"/><ellipse cx="284" cy="112" rx="16" ry="8" fill="#5a3d2a" transform="rotate(24 284 112)"/><circle cx="252" cy="86" r="14" fill="url(#wool)"/><circle cx="268" cy="82" r="12" fill="url(#wool)"/><circle cx="258" cy="110" r="4.5" fill="#33220f"/><circle cx="260" cy="108" r="1.575" fill="#fff"/><ellipse cx="266" cy="128" rx="8" ry="5" fill="#8a6a50"/><text x="16" y="28" fill="#9e8a69" font-size="11" letter-spacing="2">OVC.2</text></g><text x="640.0" y="1388" fill="#f6eedc" font-size="13" font-weight="700" letter-spacing="2" text-anchor="middle">VYRABI</text><g transform="translate(840,1062)"><rect width="360" height="300" rx="18" fill="#1d150c" stroke="#3f301c"/><ellipse cx="180" cy="258" rx="110" ry="16" fill="url(#ground)"/><g transform="rotate(-2 180 170)"><rect x="112" y="195" width="11" height="53" rx="5" fill="#6a4a33"/><rect x="111" y="238" width="13" height="10" rx="4" fill="#4a3222"/><rect x="142" y="195" width="11" height="53" rx="5" fill="#6a4a33"/><rect x="141" y="238" width="13" height="10" rx="4" fill="#4a3222"/><rect x="202" y="195" width="11" height="53" rx="5" fill="#6a4a33"/><rect x="201" y="238" width="13" height="10" rx="4" fill="#4a3222"/><rect x="232" y="195" width="11" height="53" rx="5" fill="#6a4a33"/><rect x="231" y="238" width="13" height="10" rx="4" fill="#4a3222"/><circle cx="120" cy="150" r="42" fill="url(#wool)"/><circle cx="160" cy="130" r="46" fill="url(#wool)"/><circle cx="205" cy="138" r="44" fill="url(#wool)"/><circle cx="230" cy="160" r="40" fill="url(#wool)"/><circle cx="205" cy="185" r="42" fill="url(#wool)"/><circle cx="160" cy="192" r="44" fill="url(#wool)"/><circle cx="120" cy="180" r="40" fill="url(#wool)"/><circle cx="168" cy="160" r="52" fill="url(#wool)"/><ellipse cx="262" cy="112" rx="27" ry="30" fill="url(#face)"/><ellipse cx="240" cy="106" rx="16" ry="8" fill="#5a3d2a" transform="rotate(-24 240 106)"/><ellipse cx="284" cy="112" rx="16" ry="8" fill="#5a3d2a" transform="rotate(24 284 112)"/><circle cx="252" cy="86" r="14" fill="url(#wool)"/><circle cx="268" cy="82" r="12" fill="url(#wool)"/><path d="M251 110 q7 -7 14 0" stroke="#33220f" stroke-width="3.5" fill="none" stroke-linecap="round"/><ellipse cx="266" cy="128" rx="8" ry="5" fill="#8a6a50"/></g><circle cx="80" cy="225" r="42" fill="url(#glow)"/><circle cx="68" cy="230" r="16" fill="#fdf6ea"/><circle cx="92" cy="230" r="16" fill="#fdf6ea"/><circle cx="80" cy="218" r="16" fill="#fdf6ea"/><circle cx="80" cy="238" r="13" fill="#fdf6ea"/><path d="M66 228 a14 14 0 1 1 14 14" stroke="#dcc9a8" stroke-width="2.5" fill="none" stroke-linecap="round"/><path d="M48 181 L50.1 185.9 L55 188 L50.1 190.1 L48 195 L45.9 190.1 L41 188 L45.9 185.9 Z" fill="#ffd75e"/><path d="M116 187 L117.5 190.5 L121 192 L117.5 193.5 L116 197 L114.5 193.5 L111 192 L114.5 190.5 Z" fill="#ffd75e"/><text x="16" y="28" fill="#9e8a69" font-size="11" letter-spacing="2">OVC.3</text></g><text x="1020.0" y="1388" fill="#f6eedc" font-size="13" font-weight="700" letter-spacing="2" text-anchor="middle">HOTOVO</text><text x="80" y="1468" fill="#ffd75e" font-size="20" font-weight="800" letter-spacing="2">KRAVA</text><text x="80" y="1486" fill="#9e8a69" font-size="12.5">produkt: syr (bochnik)</text><g transform="translate(80,1498)"><rect width="360" height="300" rx="18" fill="#1d150c" stroke="#3f301c"/><ellipse cx="180" cy="258" rx="110" ry="16" fill="url(#ground)"/><g transform="translate(0,24) scale(1,0.9)" filter="url(#dim)"><path d="M88 140 q-20 4 -18 24 q8 -4 16 -2 z" fill="#f3e6d0"/><circle cx="72" cy="168" r="9" fill="#e8c9a0"/><ellipse cx="170" cy="160" rx="88" ry="54" fill="url(#cream)"/><path d="M120 128 q30 -14 52 4 q10 22 -12 34 q-34 6 -46 -12 q-6 -16 6 -26 z" fill="#4a3626"/><ellipse cx="216" cy="188" rx="26" ry="18" fill="#4a3626"/><ellipse cx="180" cy="208" rx="24" ry="14" fill="#f2b8c6"/><ellipse cx="252" cy="106" rx="34" ry="32" fill="url(#cream)"/><path d="M228 88 q6 -18 24 -12 q-10 10 -8 18 z" fill="#4a3626"/><path d="M232 74 q-4 -16 12 -18 q-4 10 0 16 z" fill="#e9c78f"/><path d="M270 72 q6 -16 -10 -20 q4 10 -2 16 z" fill="#e9c78f"/><ellipse cx="222" cy="96" rx="14" ry="8" fill="#e8c9a0" transform="rotate(-18 222 96)"/><ellipse cx="282" cy="94" rx="14" ry="8" fill="#e8c9a0" transform="rotate(18 282 94)"/><ellipse cx="256" cy="126" rx="22" ry="13" fill="#f2b8c6"/><circle cx="248" cy="126" r="2.6" fill="#c4798f"/><circle cx="264" cy="126" r="2.6" fill="#c4798f"/><path d="M237 102 q7 5 14 0" stroke="#33220f" stroke-width="3.5" fill="none" stroke-linecap="round"/><path d="M261 102 q7 5 14 0" stroke="#33220f" stroke-width="3.5" fill="none" stroke-linecap="round"/></g><g fill="#9e8a69" font-family="Segoe UI" font-weight="600"><text x="290" y="66" font-size="26">z</text><text x="306" y="48" font-size="20">z</text><text x="318" y="34" font-size="15">z</text></g><text x="16" y="28" fill="#9e8a69" font-size="11" letter-spacing="2">KRA.1</text></g><text x="260.0" y="1824" fill="#f6eedc" font-size="13" font-weight="700" letter-spacing="2" text-anchor="middle">HLADOVE</text><g transform="translate(460,1498)"><rect width="360" height="300" rx="18" fill="#1d150c" stroke="#3f301c"/><ellipse cx="180" cy="258" rx="110" ry="16" fill="url(#ground)"/><rect x="112" y="195" width="11" height="53" rx="5" fill="#f3e6d0"/><rect x="111" y="238" width="13" height="10" rx="4" fill="#6a4a33"/><rect x="142" y="195" width="11" height="53" rx="5" fill="#f3e6d0"/><rect x="141" y="238" width="13" height="10" rx="4" fill="#6a4a33"/><rect x="202" y="195" width="11" height="53" rx="5" fill="#f3e6d0"/><rect x="201" y="238" width="13" height="10" rx="4" fill="#6a4a33"/><rect x="232" y="195" width="11" height="53" rx="5" fill="#f3e6d0"/><rect x="231" y="238" width="13" height="10" rx="4" fill="#6a4a33"/><path d="M88 140 q-20 4 -18 24 q8 -4 16 -2 z" fill="#f3e6d0"/><circle cx="72" cy="168" r="9" fill="#e8c9a0"/><ellipse cx="170" cy="160" rx="88" ry="54" fill="url(#cream)"/><path d="M120 128 q30 -14 52 4 q10 22 -12 34 q-34 6 -46 -12 q-6 -16 6 -26 z" fill="#4a3626"/><ellipse cx="216" cy="188" rx="26" ry="18" fill="#4a3626"/><ellipse cx="180" cy="208" rx="24" ry="14" fill="#f2b8c6"/><ellipse cx="252" cy="106" rx="34" ry="32" fill="url(#cream)"/><path d="M228 88 q6 -18 24 -12 q-10 10 -8 18 z" fill="#4a3626"/><path d="M232 74 q-4 -16 12 -18 q-4 10 0 16 z" fill="#e9c78f"/><path d="M270 72 q6 -16 -10 -20 q4 10 -2 16 z" fill="#e9c78f"/><ellipse cx="222" cy="96" rx="14" ry="8" fill="#e8c9a0" transform="rotate(-18 222 96)"/><ellipse cx="282" cy="94" rx="14" ry="8" fill="#e8c9a0" transform="rotate(18 282 94)"/><ellipse cx="256" cy="126" rx="22" ry="13" fill="#f2b8c6"/><circle cx="248" cy="126" r="2.6" fill="#c4798f"/><circle cx="264" cy="126" r="2.6" fill="#c4798f"/><circle cx="244" cy="102" r="4.5" fill="#33220f"/><circle cx="246" cy="100" r="1.575" fill="#fff"/><circle cx="268" cy="102" r="4.5" fill="#33220f"/><circle cx="270" cy="100" r="1.575" fill="#fff"/><text x="16" y="28" fill="#9e8a69" font-size="11" letter-spacing="2">KRA.2</text></g><text x="640.0" y="1824" fill="#f6eedc" font-size="13" font-weight="700" letter-spacing="2" text-anchor="middle">VYRABI</text><g transform="translate(840,1498)"><rect width="360" height="300" rx="18" fill="#1d150c" stroke="#3f301c"/><ellipse cx="180" cy="258" rx="110" ry="16" fill="url(#ground)"/><g transform="rotate(-2 180 170)"><rect x="112" y="195" width="11" height="53" rx="5" fill="#f3e6d0"/><rect x="111" y="238" width="13" height="10" rx="4" fill="#6a4a33"/><rect x="142" y="195" width="11" height="53" rx="5" fill="#f3e6d0"/><rect x="141" y="238" width="13" height="10" rx="4" fill="#6a4a33"/><rect x="202" y="195" width="11" height="53" rx="5" fill="#f3e6d0"/><rect x="201" y="238" width="13" height="10" rx="4" fill="#6a4a33"/><rect x="232" y="195" width="11" height="53" rx="5" fill="#f3e6d0"/><rect x="231" y="238" width="13" height="10" rx="4" fill="#6a4a33"/><path d="M88 140 q-20 4 -18 24 q8 -4 16 -2 z" fill="#f3e6d0"/><circle cx="72" cy="168" r="9" fill="#e8c9a0"/><ellipse cx="170" cy="160" rx="88" ry="54" fill="url(#cream)"/><path d="M120 128 q30 -14 52 4 q10 22 -12 34 q-34 6 -46 -12 q-6 -16 6 -26 z" fill="#4a3626"/><ellipse cx="216" cy="188" rx="26" ry="18" fill="#4a3626"/><ellipse cx="180" cy="208" rx="24" ry="14" fill="#f2b8c6"/><ellipse cx="252" cy="106" rx="34" ry="32" fill="url(#cream)"/><path d="M228 88 q6 -18 24 -12 q-10 10 -8 18 z" fill="#4a3626"/><path d="M232 74 q-4 -16 12 -18 q-4 10 0 16 z" fill="#e9c78f"/><path d="M270 72 q6 -16 -10 -20 q4 10 -2 16 z" fill="#e9c78f"/><ellipse cx="222" cy="96" rx="14" ry="8" fill="#e8c9a0" transform="rotate(-18 222 96)"/><ellipse cx="282" cy="94" rx="14" ry="8" fill="#e8c9a0" transform="rotate(18 282 94)"/><ellipse cx="256" cy="126" rx="22" ry="13" fill="#f2b8c6"/><circle cx="248" cy="126" r="2.6" fill="#c4798f"/><circle cx="264" cy="126" r="2.6" fill="#c4798f"/><path d="M237 102 q7 -7 14 0" stroke="#33220f" stroke-width="3.5" fill="none" stroke-linecap="round"/><path d="M261 102 q7 -7 14 0" stroke="#33220f" stroke-width="3.5" fill="none" stroke-linecap="round"/></g><circle cx="80" cy="225" r="42" fill="url(#glow)"/><path d="M56 226 a24 10 0 0 1 48 0 l0 12 a24 10 0 0 1 -48 0 z" fill="#f3c04b"/><ellipse cx="80" cy="226" rx="24" ry="10" fill="#ffd975"/><circle cx="72" cy="225" r="3.4" fill="#e3a92f"/><circle cx="88" cy="228" r="2.6" fill="#e3a92f"/><path d="M48 181 L50.1 185.9 L55 188 L50.1 190.1 L48 195 L45.9 190.1 L41 188 L45.9 185.9 Z" fill="#ffd75e"/><path d="M116 187 L117.5 190.5 L121 192 L117.5 193.5 L116 197 L114.5 193.5 L111 192 L114.5 190.5 Z" fill="#ffd75e"/><text x="16" y="28" fill="#9e8a69" font-size="11" letter-spacing="2">KRA.3</text></g><text x="1020.0" y="1824" fill="#f6eedc" font-size="13" font-weight="700" letter-spacing="2" text-anchor="middle">HOTOVO</text><text x="80" y="1904" fill="#ffd75e" font-size="20" font-weight="800" letter-spacing="2">KUN</text><text x="80" y="1922" fill="#9e8a69" font-size="12.5">produkt: hnuj (kupka)</text><g transform="translate(80,1934)"><rect width="360" height="300" rx="18" fill="#1d150c" stroke="#3f301c"/><ellipse cx="180" cy="258" rx="110" ry="16" fill="url(#ground)"/><g transform="translate(0,24) scale(1,0.9)" filter="url(#dim)"><path d="M92 140 q-26 10 -22 52 q14 -8 26 -8 z" fill="#5a3a1c"/><ellipse cx="168" cy="158" rx="82" ry="50" fill="url(#brown)"/><path d="M212 130 q10 -44 44 -58 q30 -12 40 6 l-18 10 q10 2 12 12 l-22 22 q-12 22 -34 26 z" fill="url(#brown)"/><path d="M216 128 q6 -40 42 -56 q-8 18 -4 26 q-14 18 -16 34 z" fill="#5a3a1c"/><path d="M266 62 q2 -16 14 -18 q0 12 -4 18 z" fill="#a5672a"/><ellipse cx="292" cy="92" rx="14" ry="11" fill="#c99a6e"/><circle cx="296" cy="90" r="2.4" fill="#5a3a1c"/><path d="M261 82 q7 5 14 0" stroke="#33220f" stroke-width="3.5" fill="none" stroke-linecap="round"/><ellipse cx="148" cy="164" rx="42" ry="28" fill="#96591f" opacity="0.6" transform="rotate(-10 148 164)"/></g><g fill="#9e8a69" font-family="Segoe UI" font-weight="600"><text x="290" y="66" font-size="26">z</text><text x="306" y="48" font-size="20">z</text><text x="318" y="34" font-size="15">z</text></g><text x="16" y="28" fill="#9e8a69" font-size="11" letter-spacing="2">KUN.1</text></g><text x="260.0" y="2260" fill="#f6eedc" font-size="13" font-weight="700" letter-spacing="2" text-anchor="middle">HLADOVE</text><g transform="translate(460,1934)"><rect width="360" height="300" rx="18" fill="#1d150c" stroke="#3f301c"/><ellipse cx="180" cy="258" rx="110" ry="16" fill="url(#ground)"/><rect x="112" y="192" width="11" height="58" rx="5" fill="#a5672a"/><rect x="111" y="240" width="13" height="10" rx="4" fill="#6a4222"/><rect x="142" y="192" width="11" height="58" rx="5" fill="#a5672a"/><rect x="141" y="240" width="13" height="10" rx="4" fill="#6a4222"/><rect x="202" y="192" width="11" height="58" rx="5" fill="#a5672a"/><rect x="201" y="240" width="13" height="10" rx="4" fill="#6a4222"/><rect x="232" y="192" width="11" height="58" rx="5" fill="#a5672a"/><rect x="231" y="240" width="13" height="10" rx="4" fill="#6a4222"/><path d="M92 140 q-26 10 -22 52 q14 -8 26 -8 z" fill="#5a3a1c"/><ellipse cx="168" cy="158" rx="82" ry="50" fill="url(#brown)"/><path d="M212 130 q10 -44 44 -58 q30 -12 40 6 l-18 10 q10 2 12 12 l-22 22 q-12 22 -34 26 z" fill="url(#brown)"/><path d="M216 128 q6 -40 42 -56 q-8 18 -4 26 q-14 18 -16 34 z" fill="#5a3a1c"/><path d="M266 62 q2 -16 14 -18 q0 12 -4 18 z" fill="#a5672a"/><ellipse cx="292" cy="92" rx="14" ry="11" fill="#c99a6e"/><circle cx="296" cy="90" r="2.4" fill="#5a3a1c"/><circle cx="268" cy="82" r="4.5" fill="#33220f"/><circle cx="270" cy="80" r="1.575" fill="#fff"/><ellipse cx="148" cy="164" rx="42" ry="28" fill="#96591f" opacity="0.6" transform="rotate(-10 148 164)"/><text x="16" y="28" fill="#9e8a69" font-size="11" letter-spacing="2">KUN.2</text></g><text x="640.0" y="2260" fill="#f6eedc" font-size="13" font-weight="700" letter-spacing="2" text-anchor="middle">VYRABI</text><g transform="translate(840,1934)"><rect width="360" height="300" rx="18" fill="#1d150c" stroke="#3f301c"/><ellipse cx="180" cy="258" rx="110" ry="16" fill="url(#ground)"/><g transform="rotate(-2 180 170)"><rect x="112" y="192" width="11" height="58" rx="5" fill="#a5672a"/><rect x="111" y="240" width="13" height="10" rx="4" fill="#6a4222"/><rect x="142" y="192" width="11" height="58" rx="5" fill="#a5672a"/><rect x="141" y="240" width="13" height="10" rx="4" fill="#6a4222"/><rect x="202" y="192" width="11" height="58" rx="5" fill="#a5672a"/><rect x="201" y="240" width="13" height="10" rx="4" fill="#6a4222"/><rect x="232" y="192" width="11" height="58" rx="5" fill="#a5672a"/><rect x="231" y="240" width="13" height="10" rx="4" fill="#6a4222"/><path d="M92 140 q-26 10 -22 52 q14 -8 26 -8 z" fill="#5a3a1c"/><ellipse cx="168" cy="158" rx="82" ry="50" fill="url(#brown)"/><path d="M212 130 q10 -44 44 -58 q30 -12 40 6 l-18 10 q10 2 12 12 l-22 22 q-12 22 -34 26 z" fill="url(#brown)"/><path d="M216 128 q6 -40 42 -56 q-8 18 -4 26 q-14 18 -16 34 z" fill="#5a3a1c"/><path d="M266 62 q2 -16 14 -18 q0 12 -4 18 z" fill="#a5672a"/><ellipse cx="292" cy="92" rx="14" ry="11" fill="#c99a6e"/><circle cx="296" cy="90" r="2.4" fill="#5a3a1c"/><path d="M261 82 q7 -7 14 0" stroke="#33220f" stroke-width="3.5" fill="none" stroke-linecap="round"/><ellipse cx="148" cy="164" rx="42" ry="28" fill="#96591f" opacity="0.6" transform="rotate(-10 148 164)"/></g><circle cx="80" cy="225" r="42" fill="url(#glow)"/><ellipse cx="80" cy="242" rx="24" ry="10" fill="#8a5a30"/><ellipse cx="80" cy="232" rx="17" ry="9" fill="#9a6636"/><ellipse cx="80" cy="222" rx="10" ry="7" fill="#a97239"/><path d="M80 208 q8 4 2 10" stroke="#a97239" stroke-width="5" fill="none" stroke-linecap="round"/><path d="M48 181 L50.1 185.9 L55 188 L50.1 190.1 L48 195 L45.9 190.1 L41 188 L45.9 185.9 Z" fill="#ffd75e"/><path d="M116 187 L117.5 190.5 L121 192 L117.5 193.5 L116 197 L114.5 193.5 L111 192 L114.5 190.5 Z" fill="#ffd75e"/><text x="16" y="28" fill="#9e8a69" font-size="11" letter-spacing="2">KUN.3</text></g><text x="1020.0" y="2260" fill="#f6eedc" font-size="13" font-weight="700" letter-spacing="2" text-anchor="middle">HOTOVO</text><text x="80" y="2340" fill="#ffd75e" font-size="20" font-weight="800" letter-spacing="2">SPECIALNI</text><g transform="translate(80,2370)"><rect width="360" height="300" rx="18" fill="#1d150c" stroke="#3f301c"/><ellipse cx="180" cy="258" rx="110" ry="16" fill="url(#ground)"/><path d="M150 250 q-10 -66 34 -96 q40 -26 58 6 q10 22 -4 42 l4 48 z" fill="url(#dogfur)"/><path d="M148 252 q-34 -6 -28 -34 q22 2 34 18 z" fill="url(#dogfur)"/><circle cx="226" cy="120" r="40" fill="url(#dogfur)"/><path d="M196 92 q-6 -26 12 -30 q8 14 4 28 z" fill="#c47a3a"/><path d="M250 88 q8 -26 -10 -32 q-8 14 -2 28 z" fill="#c47a3a"/><ellipse cx="238" cy="138" rx="16" ry="11" fill="#f4dcbc"/><ellipse cx="244" cy="132" rx="4.5" ry="3.5" fill="#33220f"/><path d="M238 142 q3 7 9 6" stroke="#b06a2e" stroke-width="2.5" fill="none" stroke-linecap="round"/><path d="M211 116 q7 -7 14 0" stroke="#33220f" stroke-width="3.5" fill="none" stroke-linecap="round"/><ellipse cx="196" cy="252" rx="52" ry="8" fill="#000" opacity="0.25"/><path d="M162 250 l64 0" stroke="#c47a3a" stroke-width="10" stroke-linecap="round"/><path d="M198 158 q28 14 52 -4" stroke="#b4413a" stroke-width="9" fill="none"/><circle cx="228" cy="164" r="7" fill="#ffd75e"/><text x="16" y="28" fill="#9e8a69" font-size="11" letter-spacing="2">PES</text></g><text x="260.0" y="2696" fill="#f6eedc" font-size="13" font-weight="700" letter-spacing="2" text-anchor="middle">HLIDAC - PASIVNI BONUS, JEDINY STA</text><g transform="translate(460,2370)"><rect width="360" height="300" rx="18" fill="#1d150c" stroke="#3f301c"/><ellipse cx="180" cy="258" rx="110" ry="16" fill="url(#ground)"/><path d="M60 206 q-24 -18 -12 -40 q18 2 26 22 q40 -22 96 -16 q44 6 66 30" fill="none"/><path d="M64 196 q-28 -10 -20 -38 q22 0 32 22 q6 10 -12 16 z" fill="url(#foxfur)"/><circle cx="56" cy="170" r="12" fill="#fdf6ea"/><ellipse cx="160" cy="196" rx="86" ry="34" fill="url(#foxfur)"/><ellipse cx="248" cy="178" rx="34" ry="26" fill="url(#foxfur)"/><path d="M274 180 q20 2 24 10 q-14 6 -26 0 z" fill="url(#foxfur)"/><ellipse cx="252" cy="196" rx="18" ry="10" fill="#fdf6ea"/><circle cx="297" cy="188" r="3.6" fill="#33220f"/><path d="M226 158 q-4 -20 10 -24 q6 12 2 24 z" fill="#c9531f"/><path d="M258 154 q8 -20 -8 -26 q-6 12 -2 24 z" fill="#c9531f"/><path d="M240 172 q7 -6 14 1" stroke="#33220f" stroke-width="3.5" fill="none" stroke-linecap="round"/><rect x="108" y="224" width="10" height="24" rx="5" fill="#7a3d16"/><rect x="196" y="224" width="10" height="24" rx="5" fill="#7a3d16"/><ellipse cx="165" cy="250" rx="90" ry="8" fill="#000" opacity="0.25"/><text x="16" y="28" fill="#9e8a69" font-size="11" letter-spacing="2">LISKA</text></g><text x="640.0" y="2696" fill="#f6eedc" font-size="13" font-weight="700" letter-spacing="2" text-anchor="middle">UDALOST - PLIZI SE KE KORISTI</text></svg>