<svg xmlns="http://www.w3.org/2000/svg" viewBox="0 0 1280 1904" font-family="Segoe UI, sans-serif"><defs>
<radialGradient id="softBody" cx="0.4" cy="0.35" r="0.9">
  <stop offset="0" stop-color="#fffaf0"/><stop offset="0.65" stop-color="#fff3e0"/><stop offset="1" stop-color="#efd6b0"/>
</radialGradient>
<radialGradient id="glow"><stop offset="0" stop-color="#ffd75e" stop-opacity="0.55"/><stop offset="1" stop-color="#ffd75e" stop-opacity="0"/></radialGradient>
<filter id="dim"><feColorMatrix type="saturate" values="0.4"/><feComponentTransfer><feFuncR type="linear" slope="0.75"/><feFuncG type="linear" slope="0.75"/><feFuncB type="linear" slope="0.78"/></feComponentTransfer></filter>
<radialGradient id="cardGround" cx="0.5" cy="0.5" r="0.5"><stop offset="0" stop-color="#000" stop-opacity="0.3"/><stop offset="1" stop-color="#000" stop-opacity="0"/></radialGradient>
</defs><rect width="1280" height="1904" fill="#14100a"/><text x="80" y="64" fill="#f6eedc" font-size="34" font-weight="800" letter-spacing="2">STATEK - NAVRHY STYLU ZVIRAT</text><text x="80" y="94" fill="#9e8a69" font-size="15" letter-spacing="3">SLEPICE VE TRECH STAVECH - SCHVALOVACI BOARD - 13-07-2026</text><line x1="80" y1="110" x2="1200" y2="110" stroke="#3f301c" stroke-width="1"/><text x="80" y="160" fill="#ffd75e" font-size="20" font-weight="800" letter-spacing="1">A</text><text x="108" y="160" fill="#f6eedc" font-size="20" font-weight="700" letter-spacing="2">SAMOLEPKA</text><text x="108" y="178" fill="#9e8a69" font-size="12.5" letter-spacing="0.5">flat barvy + tlusty obrys - vyrazne, snese zmenseni, komiksovy vibe</text><g transform="translate(80,190)"><rect width="360" height="300" rx="18" fill="#1d150c" stroke="#3f301c"/><ellipse cx="180" cy="258" rx="110" ry="16" fill="url(#cardGround)"/><g transform="translate(0,20) scale(1,0.92)" filter="url(#dim)"><g fill="#241505" stroke="#241505" stroke-width="11"><g transform="rotate(14 238 62)"><circle cx="222" cy="60" r="11"/><circle cx="238" cy="52" r="12"/><circle cx="254" cy="60" r="11"/></g><polygon points="270,88 297,97 270,107"/><ellipse cx="261" cy="118" rx="8" ry="12"/><ellipse cx="104" cy="128" rx="27" ry="16" transform="rotate(-32 104 128)"/><ellipse cx="96" cy="146" rx="25" ry="14" transform="rotate(-8 96 146)"/><ellipse cx="101" cy="162" rx="22" ry="12" transform="rotate(14 101 162)"/><ellipse cx="170" cy="165" rx="78" ry="60"/><ellipse cx="213" cy="125" rx="42" ry="48"/><circle cx="238" cy="95" r="36"/></g><g transform="rotate(14 238 62)" fill="#ff5a5a"><circle cx="222" cy="60" r="11"/><circle cx="238" cy="52" r="12"/><circle cx="254" cy="60" r="11"/></g><g fill="#ffb340"><polygon points="270,88 297,97 270,107"/></g><polygon points="270,97 297,97 270,107" fill="#e8931f"/><g fill="#ff5a5a"><ellipse cx="261" cy="118" rx="8" ry="12"/></g><g fill="#f7ba49"><ellipse cx="104" cy="128" rx="27" ry="16" transform="rotate(-32 104 128)"/><ellipse cx="96" cy="146" rx="25" ry="14" transform="rotate(-8 96 146)"/><ellipse cx="101" cy="162" rx="22" ry="12" transform="rotate(14 101 162)"/></g><g fill="#fff3e0"><ellipse cx="170" cy="165" rx="78" ry="60"/><ellipse cx="213" cy="125" rx="42" ry="48"/><circle cx="238" cy="95" r="36"/></g><path d="M104 190 q40 34 96 16 q-16 32 -62 26 q-38 -6 -34 -42 z" fill="#ecd3ac"/><ellipse cx="152" cy="170" rx="42" ry="30" fill="#ecd3ac" stroke="#241505" stroke-width="5" transform="rotate(-14 152 170)"/><path d="M240 92 q7 5 14 0" stroke="#241505" stroke-width="5" fill="none" stroke-linecap="round"/></g><g fill="#9e8a69" font-family="Segoe UI" font-weight="700"><text x="285" y="70" font-size="26">z</text><text x="302" y="52" font-size="20">z</text></g><text x="16" y="28" fill="#9e8a69" font-size="11" letter-spacing="2">A.1</text></g><text x="260.0" y="516" fill="#f6eedc" font-size="13" font-weight="700" letter-spacing="2" text-anchor="middle">HLADOVA</text><text x="260.0" y="532" fill="#9e8a69" font-size="11" text-anchor="middle">sedi, spi, ztlumena</text><g transform="translate(460,190)"><rect width="360" height="300" rx="18" fill="#1d150c" stroke="#3f301c"/><ellipse cx="180" cy="258" rx="110" ry="16" fill="url(#cardGround)"/><g stroke="#241505" stroke-width="10" stroke-linecap="round"><path d="M150 222 L148 250 M140 250 L158 250"/><path d="M192 222 L194 250 M184 250 L202 250"/></g><g stroke="#e8931f" stroke-width="4.5" stroke-linecap="round"><path d="M150 222 L148 250 M140 250 L158 250"/><path d="M192 222 L194 250 M184 250 L202 250"/></g><g fill="#241505" stroke="#241505" stroke-width="11"><g><circle cx="222" cy="60" r="11"/><circle cx="238" cy="52" r="12"/><circle cx="254" cy="60" r="11"/></g><polygon points="270,88 297,97 270,107"/><ellipse cx="261" cy="118" rx="8" ry="12"/><ellipse cx="104" cy="128" rx="27" ry="16" transform="rotate(-32 104 128)"/><ellipse cx="96" cy="146" rx="25" ry="14" transform="rotate(-8 96 146)"/><ellipse cx="101" cy="162" rx="22" ry="12" transform="rotate(14 101 162)"/><ellipse cx="170" cy="165" rx="78" ry="60"/><ellipse cx="213" cy="125" rx="42" ry="48"/><circle cx="238" cy="95" r="36"/></g><g fill="#ff5a5a"><circle cx="222" cy="60" r="11"/><circle cx="238" cy="52" r="12"/><circle cx="254" cy="60" r="11"/></g><g fill="#ffb340"><polygon points="270,88 297,97 270,107"/></g><polygon points="270,97 297,97 270,107" fill="#e8931f"/><g fill="#ff5a5a"><ellipse cx="261" cy="118" rx="8" ry="12"/></g><g fill="#f7ba49"><ellipse cx="104" cy="128" rx="27" ry="16" transform="rotate(-32 104 128)"/><ellipse cx="96" cy="146" rx="25" ry="14" transform="rotate(-8 96 146)"/><ellipse cx="101" cy="162" rx="22" ry="12" transform="rotate(14 101 162)"/></g><g fill="#fff3e0"><ellipse cx="170" cy="165" rx="78" ry="60"/><ellipse cx="213" cy="125" rx="42" ry="48"/><circle cx="238" cy="95" r="36"/></g><path d="M104 190 q40 34 96 16 q-16 32 -62 26 q-38 -6 -34 -42 z" fill="#ecd3ac"/><ellipse cx="152" cy="170" rx="42" ry="30" fill="#ecd3ac" stroke="#241505" stroke-width="5" transform="rotate(-14 152 170)"/><circle cx="247" cy="90" r="6" fill="#241505"/><circle cx="249.5" cy="87.5" r="2" fill="#fff"/><text x="16" y="28" fill="#9e8a69" font-size="11" letter-spacing="2">A.2</text></g><text x="640.0" y="516" fill="#f6eedc" font-size="13" font-weight="700" letter-spacing="2" text-anchor="middle">VYRABI</text><text x="640.0" y="532" fill="#9e8a69" font-size="11" text-anchor="middle">klidny zakladni postoj</text><g transform="translate(840,190)"><rect width="360" height="300" rx="18" fill="#1d150c" stroke="#3f301c"/><ellipse cx="180" cy="258" rx="110" ry="16" fill="url(#cardGround)"/><g transform="rotate(-3 180 170)"><g stroke="#241505" stroke-width="10" stroke-linecap="round"><path d="M150 222 L148 250 M140 250 L158 250"/><path d="M192 222 L194 250 M184 250 L202 250"/></g><g stroke="#e8931f" stroke-width="4.5" stroke-linecap="round"><path d="M150 222 L148 250 M140 250 L158 250"/><path d="M192 222 L194 250 M184 250 L202 250"/></g><g fill="#241505" stroke="#241505" stroke-width="11"><g><circle cx="222" cy="60" r="11"/><circle cx="238" cy="52" r="12"/><circle cx="254" cy="60" r="11"/></g><polygon points="270,88 297,97 270,107"/><ellipse cx="261" cy="118" rx="8" ry="12"/><ellipse cx="104" cy="128" rx="27" ry="16" transform="rotate(-32 104 128)"/><ellipse cx="96" cy="146" rx="25" ry="14" transform="rotate(-8 96 146)"/><ellipse cx="101" cy="162" rx="22" ry="12" transform="rotate(14 101 162)"/><ellipse cx="170" cy="165" rx="78" ry="60"/><ellipse cx="213" cy="125" rx="42" ry="48"/><circle cx="238" cy="95" r="36"/></g><g fill="#ff5a5a"><circle cx="222" cy="60" r="11"/><circle cx="238" cy="52" r="12"/><circle cx="254" cy="60" r="11"/></g><g fill="#ffb340"><polygon points="270,88 297,97 270,107"/></g><polygon points="270,97 297,97 270,107" fill="#e8931f"/><g fill="#ff5a5a"><ellipse cx="261" cy="118" rx="8" ry="12"/></g><g fill="#f7ba49"><ellipse cx="104" cy="128" rx="27" ry="16" transform="rotate(-32 104 128)"/><ellipse cx="96" cy="146" rx="25" ry="14" transform="rotate(-8 96 146)"/><ellipse cx="101" cy="162" rx="22" ry="12" transform="rotate(14 101 162)"/></g><g fill="#fff3e0"><ellipse cx="170" cy="165" rx="78" ry="60"/><ellipse cx="213" cy="125" rx="42" ry="48"/><circle cx="238" cy="95" r="36"/></g><path d="M104 190 q40 34 96 16 q-16 32 -62 26 q-38 -6 -34 -42 z" fill="#ecd3ac"/><ellipse cx="152" cy="170" rx="42" ry="30" fill="#ecd3ac" stroke="#241505" stroke-width="5" transform="rotate(-14 152 170)"/><path d="M240 88 q7 -7 14 0" stroke="#241505" stroke-width="5" fill="none" stroke-linecap="round"/></g><circle cx="92" cy="228" r="40" fill="url(#glow)"/><ellipse cx="92" cy="230" rx="21" ry="27" fill="#fff7ea" stroke="#241505" stroke-width="6"/><path d="M60 183 L62.1 187.9 L67 190 L62.1 192.1 L60 197 L57.9 192.1 L53 190 L57.9 187.9 Z" fill="#ffd75e"/><path d="M126 191 L127.5 194.5 L131 196 L127.5 197.5 L126 201 L124.5 197.5 L121 196 L124.5 194.5 Z" fill="#ffd75e"/><text x="16" y="28" fill="#9e8a69" font-size="11" letter-spacing="2">A.3</text></g><text x="1020.0" y="516" fill="#f6eedc" font-size="13" font-weight="700" letter-spacing="2" text-anchor="middle">HOTOVO</text><text x="1020.0" y="532" fill="#9e8a69" font-size="11" text-anchor="middle">vejce + zlata zare</text><text x="80" y="596" fill="#ffd75e" font-size="20" font-weight="800" letter-spacing="1">B</text><text x="108" y="596" fill="#f6eedc" font-size="20" font-weight="700" letter-spacing="2">MEKKA ILUSTRACE</text><text x="108" y="614" fill="#9e8a69" font-size="12.5" letter-spacing="0.5">gradientni cozy tvary bez obrysu - nejbliz soucasne scene</text><g transform="translate(80,626)"><rect width="360" height="300" rx="18" fill="#1d150c" stroke="#3f301c"/><ellipse cx="180" cy="258" rx="110" ry="16" fill="url(#cardGround)"/><g transform="translate(0,20) scale(1,0.92)" filter="url(#dim)"><ellipse cx="104" cy="128" rx="27" ry="16" fill="#e8c9a0" transform="rotate(-32 104 128)"/><ellipse cx="96" cy="146" rx="25" ry="14" fill="#e8c9a0" transform="rotate(-8 96 146)"/><ellipse cx="101" cy="162" rx="22" ry="12" fill="#e8c9a0" transform="rotate(14 101 162)"/><ellipse cx="170" cy="165" rx="78" ry="60" fill="url(#softBody)"/><ellipse cx="213" cy="125" rx="42" ry="48" fill="url(#softBody)"/><circle cx="238" cy="95" r="36" fill="url(#softBody)"/><g transform="rotate(14 238 62)"><g fill="#ff6b6b"><circle cx="222" cy="60" r="11"/><circle cx="238" cy="52" r="12"/><circle cx="254" cy="60" r="11"/></g></g><polygon points="270,88 297,97 270,107" fill="#ffb340"/><polygon points="270,97 297,97 270,107" fill="#e8931f"/><ellipse cx="261" cy="118" rx="8" ry="12" fill="#ff6b6b"/><path d="M240 92 q7 5 14 0" stroke="#33220f" stroke-width="3.5" fill="none" stroke-linecap="round"/><ellipse cx="152" cy="170" rx="42" ry="30" fill="#f0d2ab" transform="rotate(-14 152 170)"/><path d="M120 178 q30 16 62 6 M126 190 q26 12 50 4" stroke="#d9b586" stroke-width="3" fill="none" stroke-linecap="round"/></g><g fill="#9e8a69" font-family="Segoe UI" font-weight="600"><text x="285" y="70" font-size="26">z</text><text x="302" y="52" font-size="20">z</text><text x="315" y="38" font-size="15">z</text></g><text x="16" y="28" fill="#9e8a69" font-size="11" letter-spacing="2">B.1</text></g><text x="260.0" y="952" fill="#f6eedc" font-size="13" font-weight="700" letter-spacing="2" text-anchor="middle">HLADOVA</text><text x="260.0" y="968" fill="#9e8a69" font-size="11" text-anchor="middle">sedi, spi, ztlumena</text><g transform="translate(460,626)"><rect width="360" height="300" rx="18" fill="#1d150c" stroke="#3f301c"/><ellipse cx="180" cy="258" rx="110" ry="16" fill="url(#cardGround)"/><ellipse cx="104" cy="128" rx="27" ry="16" fill="#e8c9a0" transform="rotate(-32 104 128)"/><ellipse cx="96" cy="146" rx="25" ry="14" fill="#e8c9a0" transform="rotate(-8 96 146)"/><ellipse cx="101" cy="162" rx="22" ry="12" fill="#e8c9a0" transform="rotate(14 101 162)"/><ellipse cx="170" cy="165" rx="78" ry="60" fill="url(#softBody)"/><ellipse cx="213" cy="125" rx="42" ry="48" fill="url(#softBody)"/><circle cx="238" cy="95" r="36" fill="url(#softBody)"/><g fill="#ff6b6b"><circle cx="222" cy="60" r="11"/><circle cx="238" cy="52" r="12"/><circle cx="254" cy="60" r="11"/></g><polygon points="270,88 297,97 270,107" fill="#ffb340"/><polygon points="270,97 297,97 270,107" fill="#e8931f"/><ellipse cx="261" cy="118" rx="8" ry="12" fill="#ff6b6b"/><circle cx="247" cy="90" r="5.2" fill="#33220f"/><circle cx="249" cy="88" r="1.8" fill="#fff"/><ellipse cx="152" cy="170" rx="42" ry="30" fill="#f0d2ab" transform="rotate(-14 152 170)"/><path d="M120 178 q30 16 62 6 M126 190 q26 12 50 4" stroke="#d9b586" stroke-width="3" fill="none" stroke-linecap="round"/><g stroke="#d98a2b" stroke-width="5" stroke-linecap="round"><path d="M150 222 L148 250 M140 250 L158 250"/><path d="M192 222 L194 250 M184 250 L202 250"/></g><text x="16" y="28" fill="#9e8a69" font-size="11" letter-spacing="2">B.2</text></g><text x="640.0" y="952" fill="#f6eedc" font-size="13" font-weight="700" letter-spacing="2" text-anchor="middle">VYRABI</text><text x="640.0" y="968" fill="#9e8a69" font-size="11" text-anchor="middle">klidny zakladni postoj</text><g transform="translate(840,626)"><rect width="360" height="300" rx="18" fill="#1d150c" stroke="#3f301c"/><ellipse cx="180" cy="258" rx="110" ry="16" fill="url(#cardGround)"/><g transform="rotate(-3 180 170)"><ellipse cx="104" cy="128" rx="27" ry="16" fill="#e8c9a0" transform="rotate(-32 104 128)"/><ellipse cx="96" cy="146" rx="25" ry="14" fill="#e8c9a0" transform="rotate(-8 96 146)"/><ellipse cx="101" cy="162" rx="22" ry="12" fill="#e8c9a0" transform="rotate(14 101 162)"/><ellipse cx="170" cy="165" rx="78" ry="60" fill="url(#softBody)"/><ellipse cx="213" cy="125" rx="42" ry="48" fill="url(#softBody)"/><circle cx="238" cy="95" r="36" fill="url(#softBody)"/><g fill="#ff6b6b"><circle cx="222" cy="60" r="11"/><circle cx="238" cy="52" r="12"/><circle cx="254" cy="60" r="11"/></g><polygon points="270,88 297,97 270,107" fill="#ffb340"/><polygon points="270,97 297,97 270,107" fill="#e8931f"/><ellipse cx="261" cy="118" rx="8" ry="12" fill="#ff6b6b"/><path d="M240 88 q7 -7 14 0" stroke="#33220f" stroke-width="3.5" fill="none" stroke-linecap="round"/><ellipse cx="152" cy="170" rx="42" ry="30" fill="#f0d2ab" transform="rotate(-14 152 170)"/><path d="M120 178 q30 16 62 6 M126 190 q26 12 50 4" stroke="#d9b586" stroke-width="3" fill="none" stroke-linecap="round"/><g stroke="#d98a2b" stroke-width="5" stroke-linecap="round"><path d="M150 222 L148 250 M140 250 L158 250"/><path d="M192 222 L194 250 M184 250 L202 250"/></g></g><circle cx="92" cy="228" r="40" fill="url(#glow)"/><ellipse cx="92" cy="230" rx="21" ry="27" fill="#fff7ea" stroke="#e8d3ae" stroke-width="2"/><path d="M60 183 L62.1 187.9 L67 190 L62.1 192.1 L60 197 L57.9 192.1 L53 190 L57.9 187.9 Z" fill="#ffd75e"/><path d="M126 191 L127.5 194.5 L131 196 L127.5 197.5 L126 201 L124.5 197.5 L121 196 L124.5 194.5 Z" fill="#ffd75e"/><path d="M80 172 L81.2 174.8 L84 176 L81.2 177.2 L80 180 L78.8 177.2 L76 176 L78.8 174.8 Z" fill="#ffd75e"/><text x="16" y="28" fill="#9e8a69" font-size="11" letter-spacing="2">B.3</text></g><text x="1020.0" y="952" fill="#f6eedc" font-size="13" font-weight="700" letter-spacing="2" text-anchor="middle">HOTOVO</text><text x="1020.0" y="968" fill="#9e8a69" font-size="11" text-anchor="middle">vejce + zlata zare</text><text x="80" y="1032" fill="#ffd75e" font-size="20" font-weight="800" letter-spacing="1">C</text><text x="108" y="1032" fill="#f6eedc" font-size="20" font-weight="700" letter-spacing="2">GEOMETRIE</text><text x="108" y="1050" fill="#9e8a69" font-size="12.5" letter-spacing="0.5">ciste zakladni tvary - moderni, nejlevnejsi na vyrobu celeho setu</text><g transform="translate(80,1062)"><rect width="360" height="300" rx="18" fill="#1d150c" stroke="#3f301c"/><ellipse cx="180" cy="258" rx="110" ry="16" fill="url(#cardGround)"/><g transform="translate(0,16)" filter="url(#dim)"><path d="M118 170 a62 62 0 0 1 62 -62 l0 62 z" fill="#e0c79b"/><circle cx="180" cy="170" r="62" fill="#fff3e0"/><circle cx="243" cy="106" r="30" fill="#fff3e0"/><circle cx="243" cy="63" r="12" fill="#ff5a5a"/><polygon points="271,98 297,106 271,114" fill="#ffb340"/><rect x="244" y="98" width="14" height="4" rx="2" fill="#33220f"/><circle cx="168" cy="172" r="26" fill="#ecd3ac"/></g><g fill="#9e8a69" font-family="Segoe UI" font-weight="600"><text x="288" y="66" font-size="24">z</text><text x="304" y="48" font-size="17">z</text></g><text x="16" y="28" fill="#9e8a69" font-size="11" letter-spacing="2">C.1</text></g><text x="260.0" y="1388" fill="#f6eedc" font-size="13" font-weight="700" letter-spacing="2" text-anchor="middle">HLADOVA</text><text x="260.0" y="1404" fill="#9e8a69" font-size="11" text-anchor="middle">sedi, spi, ztlumena</text><g transform="translate(460,1062)"><rect width="360" height="300" rx="18" fill="#1d150c" stroke="#3f301c"/><ellipse cx="180" cy="258" rx="110" ry="16" fill="url(#cardGround)"/><path d="M118 170 a62 62 0 0 1 62 -62 l0 62 z" fill="#e0c79b"/><circle cx="180" cy="170" r="62" fill="#fff3e0"/><circle cx="243" cy="106" r="30" fill="#fff3e0"/><circle cx="243" cy="63" r="12" fill="#ff5a5a"/><polygon points="271,98 297,106 271,114" fill="#ffb340"/><circle cx="252" cy="100" r="5" fill="#33220f"/><circle cx="168" cy="172" r="26" fill="#ecd3ac"/><rect x="152" y="228" width="7" height="26" rx="3" fill="#d98a2b"/><rect x="192" y="228" width="7" height="26" rx="3" fill="#d98a2b"/><text x="16" y="28" fill="#9e8a69" font-size="11" letter-spacing="2">C.2</text></g><text x="640.0" y="1388" fill="#f6eedc" font-size="13" font-weight="700" letter-spacing="2" text-anchor="middle">VYRABI</text><text x="640.0" y="1404" fill="#9e8a69" font-size="11" text-anchor="middle">klidny zakladni postoj</text><g transform="translate(840,1062)"><rect width="360" height="300" rx="18" fill="#1d150c" stroke="#3f301c"/><ellipse cx="180" cy="258" rx="110" ry="16" fill="url(#cardGround)"/><path d="M118 170 a62 62 0 0 1 62 -62 l0 62 z" fill="#e0c79b"/><circle cx="180" cy="170" r="62" fill="#fff3e0"/><circle cx="243" cy="106" r="30" fill="#fff3e0"/><circle cx="243" cy="63" r="12" fill="#ff5a5a"/><polygon points="271,98 297,106 271,114" fill="#ffb340"/><path d="M246 100 q6 -6 12 0" stroke="#33220f" stroke-width="4" fill="none" stroke-linecap="round"/><circle cx="168" cy="172" r="26" fill="#ecd3ac"/><rect x="152" y="228" width="7" height="26" rx="3" fill="#d98a2b"/><rect x="192" y="228" width="7" height="26" rx="3" fill="#d98a2b"/><circle cx="96" cy="226" r="34" fill="none" stroke="#ffd75e" stroke-width="3" opacity="0.7"/><ellipse cx="96" cy="226" rx="19" ry="25" fill="#fff7ea"/><text x="16" y="28" fill="#9e8a69" font-size="11" letter-spacing="2">C.3</text></g><text x="1020.0" y="1388" fill="#f6eedc" font-size="13" font-weight="700" letter-spacing="2" text-anchor="middle">HOTOVO</text><text x="1020.0" y="1404" fill="#9e8a69" font-size="11" text-anchor="middle">vejce + zlata zare</text><text x="80" y="1468" fill="#ffd75e" font-size="20" font-weight="800" letter-spacing="1">D</text><text x="108" y="1468" fill="#f6eedc" font-size="20" font-weight="700" letter-spacing="2">PIXEL ART</text><text x="108" y="1486" fill="#9e8a69" font-size="12.5" letter-spacing="0.5">retro 16-bit - nostalgicky, stavy se kresli snadno</text><g transform="translate(80,1498)"><rect width="360" height="300" rx="18" fill="#1d150c" stroke="#3f301c"/><ellipse cx="180" cy="258" rx="110" ry="16" fill="url(#cardGround)"/><g shape-rendering="crispEdges" filter='url(#dim)'><rect x="240" y="40" width="12" height="12" fill="#ffd75e"/><rect x="144" y="52" width="12" height="12" fill="#ff5a5a"/><rect x="156" y="52" width="12" height="12" fill="#ff5a5a"/><rect x="228" y="52" width="12" height="12" fill="#ffd75e"/><rect x="132" y="64" width="12" height="12" fill="#ff5a5a"/><rect x="144" y="64" width="12" height="12" fill="#ff5a5a"/><rect x="156" y="64" width="12" height="12" fill="#ff5a5a"/><rect x="168" y="64" width="12" height="12" fill="#ff5a5a"/><rect x="216" y="64" width="12" height="12" fill="#ffd75e"/><rect x="144" y="76" width="12" height="12" fill="#3a2410"/><rect x="156" y="76" width="12" height="12" fill="#fff3e0"/><rect x="168" y="76" width="12" height="12" fill="#fff3e0"/><rect x="180" y="76" width="12" height="12" fill="#fff3e0"/><rect x="192" y="76" width="12" height="12" fill="#3a2410"/><rect x="132" y="88" width="12" height="12" fill="#3a2410"/><rect x="144" y="88" width="12" height="12" fill="#fff3e0"/><rect x="156" y="88" width="12" height="12" fill="#fff3e0"/><rect x="168" y="88" width="12" height="12" fill="#fff3e0"/><rect x="180" y="88" width="12" height="12" fill="#fff3e0"/><rect x="192" y="88" width="12" height="12" fill="#fff3e0"/><rect x="204" y="88" width="12" height="12" fill="#3a2410"/><rect x="132" y="100" width="12" height="12" fill="#3a2410"/><rect x="144" y="100" width="12" height="12" fill="#fff3e0"/><rect x="156" y="100" width="12" height="12" fill="#3a2410"/><rect x="168" y="100" width="12" height="12" fill="#fff3e0"/><rect x="180" y="100" width="12" height="12" fill="#fff3e0"/><rect x="192" y="100" width="12" height="12" fill="#fff3e0"/><rect x="204" y="100" width="12" height="12" fill="#3a2410"/><rect x="216" y="100" width="12" height="12" fill="#ffb340"/><rect x="228" y="100" width="12" height="12" fill="#ffb340"/><rect x="132" y="112" width="12" height="12" fill="#3a2410"/><rect x="144" y="112" width="12" height="12" fill="#fff3e0"/><rect x="156" y="112" width="12" height="12" fill="#fff3e0"/><rect x="168" y="112" width="12" height="12" fill="#fff3e0"/><rect x="180" y="112" width="12" height="12" fill="#fff3e0"/><rect x="192" y="112" width="12" height="12" fill="#fff3e0"/><rect x="204" y="112" width="12" height="12" fill="#3a2410"/><rect x="216" y="112" width="12" height="12" fill="#ff5a5a"/><rect x="96" y="124" width="12" height="12" fill="#3a2410"/><rect x="108" y="124" width="12" height="12" fill="#3a2410"/><rect x="144" y="124" width="12" height="12" fill="#3a2410"/><rect x="156" y="124" width="12" height="12" fill="#fff3e0"/><rect x="168" y="124" width="12" height="12" fill="#fff3e0"/><rect x="180" y="124" width="12" height="12" fill="#fff3e0"/><rect x="192" y="124" width="12" height="12" fill="#fff3e0"/><rect x="204" y="124" width="12" height="12" fill="#3a2410"/><rect x="84" y="136" width="12" height="12" fill="#3a2410"/><rect x="96" y="136" width="12" height="12" fill="#fff3e0"/><rect x="108" y="136" width="12" height="12" fill="#fff3e0"/><rect x="120" y="136" width="12" height="12" fill="#3a2410"/><rect x="132" y="136" width="12" height="12" fill="#3a2410"/><rect x="144" y="136" width="12" height="12" fill="#fff3e0"/><rect x="156" y="136" width="12" height="12" fill="#fff3e0"/><rect x="168" y="136" width="12" height="12" fill="#fff3e0"/><rect x="180" y="136" width="12" height="12" fill="#fff3e0"/><rect x="192" y="136" width="12" height="12" fill="#fff3e0"/><rect x="204" y="136" width="12" height="12" fill="#fff3e0"/><rect x="216" y="136" width="12" height="12" fill="#3a2410"/><rect x="84" y="148" width="12" height="12" fill="#3a2410"/><rect x="96" y="148" width="12" height="12" fill="#fff3e0"/><rect x="108" y="148" width="12" height="12" fill="#fff3e0"/><rect x="120" y="148" width="12" height="12" fill="#fff3e0"/><rect x="132" y="148" width="12" height="12" fill="#fff3e0"/><rect x="144" y="148" width="12" height="12" fill="#fff3e0"/><rect x="156" y="148" width="12" height="12" fill="#fff3e0"/><rect x="168" y="148" width="12" height="12" fill="#fff3e0"/><rect x="180" y="148" width="12" height="12" fill="#fff3e0"/><rect x="192" y="148" width="12" height="12" fill="#fff3e0"/><rect x="204" y="148" width="12" height="12" fill="#fff3e0"/><rect x="216" y="148" width="12" height="12" fill="#3a2410"/><rect x="84" y="160" width="12" height="12" fill="#3a2410"/><rect x="96" y="160" width="12" height="12" fill="#ecd3ac"/><rect x="108" y="160" width="12" height="12" fill="#fff3e0"/><rect x="120" y="160" width="12" height="12" fill="#fff3e0"/><rect x="132" y="160" width="12" height="12" fill="#fff3e0"/><rect x="144" y="160" width="12" height="12" fill="#fff3e0"/><rect x="156" y="160" width="12" height="12" fill="#fff3e0"/><rect x="168" y="160" width="12" height="12" fill="#fff3e0"/><rect x="180" y="160" width="12" height="12" fill="#fff3e0"/><rect x="192" y="160" width="12" height="12" fill="#fff3e0"/><rect x="204" y="160" width="12" height="12" fill="#fff3e0"/><rect x="216" y="160" width="12" height="12" fill="#3a2410"/><rect x="84" y="172" width="12" height="12" fill="#3a2410"/><rect x="96" y="172" width="12" height="12" fill="#ecd3ac"/><rect x="108" y="172" width="12" height="12" fill="#ecd3ac"/><rect x="120" y="172" width="12" height="12" fill="#fff3e0"/><rect x="132" y="172" width="12" height="12" fill="#fff3e0"/><rect x="144" y="172" width="12" height="12" fill="#fff3e0"/><rect x="156" y="172" width="12" height="12" fill="#fff3e0"/><rect x="168" y="172" width="12" height="12" fill="#fff3e0"/><rect x="180" y="172" width="12" height="12" fill="#fff3e0"/><rect x="192" y="172" width="12" height="12" fill="#fff3e0"/><rect x="204" y="172" width="12" height="12" fill="#3a2410"/><rect x="96" y="184" width="12" height="12" fill="#3a2410"/><rect x="108" y="184" width="12" height="12" fill="#ecd3ac"/><rect x="120" y="184" width="12" height="12" fill="#ecd3ac"/><rect x="132" y="184" width="12" height="12" fill="#fff3e0"/><rect x="144" y="184" width="12" height="12" fill="#fff3e0"/><rect x="156" y="184" width="12" height="12" fill="#fff3e0"/><rect x="168" y="184" width="12" height="12" fill="#fff3e0"/><rect x="180" y="184" width="12" height="12" fill="#fff3e0"/><rect x="192" y="184" width="12" height="12" fill="#3a2410"/><rect x="108" y="196" width="12" height="12" fill="#3a2410"/><rect x="120" y="196" width="12" height="12" fill="#3a2410"/><rect x="132" y="196" width="12" height="12" fill="#3a2410"/><rect x="144" y="196" width="12" height="12" fill="#3a2410"/><rect x="156" y="196" width="12" height="12" fill="#3a2410"/><rect x="168" y="196" width="12" height="12" fill="#3a2410"/><rect x="180" y="196" width="12" height="12" fill="#3a2410"/></g><text x="16" y="28" fill="#9e8a69" font-size="11" letter-spacing="2">D.1</text></g><text x="260.0" y="1824" fill="#f6eedc" font-size="13" font-weight="700" letter-spacing="2" text-anchor="middle">HLADOVA</text><text x="260.0" y="1840" fill="#9e8a69" font-size="11" text-anchor="middle">sedi, spi, ztlumena</text><g transform="translate(460,1498)"><rect width="360" height="300" rx="18" fill="#1d150c" stroke="#3f301c"/><ellipse cx="180" cy="258" rx="110" ry="16" fill="url(#cardGround)"/><g shape-rendering="crispEdges"><rect x="156" y="40" width="12" height="12" fill="#ff5a5a"/><rect x="168" y="40" width="12" height="12" fill="#ff5a5a"/><rect x="144" y="52" width="12" height="12" fill="#ff5a5a"/><rect x="156" y="52" width="12" height="12" fill="#ff5a5a"/><rect x="168" y="52" width="12" height="12" fill="#ff5a5a"/><rect x="180" y="52" width="12" height="12" fill="#ff5a5a"/><rect x="144" y="64" width="12" height="12" fill="#3a2410"/><rect x="156" y="64" width="12" height="12" fill="#fff3e0"/><rect x="168" y="64" width="12" height="12" fill="#fff3e0"/><rect x="180" y="64" width="12" height="12" fill="#fff3e0"/><rect x="192" y="64" width="12" height="12" fill="#3a2410"/><rect x="132" y="76" width="12" height="12" fill="#3a2410"/><rect x="144" y="76" width="12" height="12" fill="#fff3e0"/><rect x="156" y="76" width="12" height="12" fill="#fff3e0"/><rect x="168" y="76" width="12" height="12" fill="#fff3e0"/><rect x="180" y="76" width="12" height="12" fill="#fff3e0"/><rect x="192" y="76" width="12" height="12" fill="#fff3e0"/><rect x="204" y="76" width="12" height="12" fill="#3a2410"/><rect x="132" y="88" width="12" height="12" fill="#3a2410"/><rect x="144" y="88" width="12" height="12" fill="#fff3e0"/><rect x="156" y="88" width="12" height="12" fill="#33220f"/><rect x="168" y="88" width="12" height="12" fill="#fff3e0"/><rect x="180" y="88" width="12" height="12" fill="#fff3e0"/><rect x="192" y="88" width="12" height="12" fill="#fff3e0"/><rect x="204" y="88" width="12" height="12" fill="#3a2410"/><rect x="216" y="88" width="12" height="12" fill="#ffb340"/><rect x="228" y="88" width="12" height="12" fill="#ffb340"/><rect x="132" y="100" width="12" height="12" fill="#3a2410"/><rect x="144" y="100" width="12" height="12" fill="#fff3e0"/><rect x="156" y="100" width="12" height="12" fill="#fff3e0"/><rect x="168" y="100" width="12" height="12" fill="#fff3e0"/><rect x="180" y="100" width="12" height="12" fill="#fff3e0"/><rect x="192" y="100" width="12" height="12" fill="#fff3e0"/><rect x="204" y="100" width="12" height="12" fill="#3a2410"/><rect x="216" y="100" width="12" height="12" fill="#ff5a5a"/><rect x="96" y="112" width="12" height="12" fill="#3a2410"/><rect x="108" y="112" width="12" height="12" fill="#3a2410"/><rect x="144" y="112" width="12" height="12" fill="#3a2410"/><rect x="156" y="112" width="12" height="12" fill="#fff3e0"/><rect x="168" y="112" width="12" height="12" fill="#fff3e0"/><rect x="180" y="112" width="12" height="12" fill="#fff3e0"/><rect x="192" y="112" width="12" height="12" fill="#fff3e0"/><rect x="204" y="112" width="12" height="12" fill="#3a2410"/><rect x="84" y="124" width="12" height="12" fill="#3a2410"/><rect x="96" y="124" width="12" height="12" fill="#fff3e0"/><rect x="108" y="124" width="12" height="12" fill="#fff3e0"/><rect x="120" y="124" width="12" height="12" fill="#3a2410"/><rect x="132" y="124" width="12" height="12" fill="#3a2410"/><rect x="144" y="124" width="12" height="12" fill="#fff3e0"/><rect x="156" y="124" width="12" height="12" fill="#fff3e0"/><rect x="168" y="124" width="12" height="12" fill="#fff3e0"/><rect x="180" y="124" width="12" height="12" fill="#fff3e0"/><rect x="192" y="124" width="12" height="12" fill="#fff3e0"/><rect x="204" y="124" width="12" height="12" fill="#fff3e0"/><rect x="216" y="124" width="12" height="12" fill="#3a2410"/><rect x="84" y="136" width="12" height="12" fill="#3a2410"/><rect x="96" y="136" width="12" height="12" fill="#fff3e0"/><rect x="108" y="136" width="12" height="12" fill="#fff3e0"/><rect x="120" y="136" width="12" height="12" fill="#fff3e0"/><rect x="132" y="136" width="12" height="12" fill="#fff3e0"/><rect x="144" y="136" width="12" height="12" fill="#fff3e0"/><rect x="156" y="136" width="12" height="12" fill="#fff3e0"/><rect x="168" y="136" width="12" height="12" fill="#fff3e0"/><rect x="180" y="136" width="12" height="12" fill="#fff3e0"/><rect x="192" y="136" width="12" height="12" fill="#fff3e0"/><rect x="204" y="136" width="12" height="12" fill="#fff3e0"/><rect x="216" y="136" width="12" height="12" fill="#3a2410"/><rect x="84" y="148" width="12" height="12" fill="#3a2410"/><rect x="96" y="148" width="12" height="12" fill="#ecd3ac"/><rect x="108" y="148" width="12" height="12" fill="#fff3e0"/><rect x="120" y="148" width="12" height="12" fill="#fff3e0"/><rect x="132" y="148" width="12" height="12" fill="#fff3e0"/><rect x="144" y="148" width="12" height="12" fill="#fff3e0"/><rect x="156" y="148" width="12" height="12" fill="#fff3e0"/><rect x="168" y="148" width="12" height="12" fill="#fff3e0"/><rect x="180" y="148" width="12" height="12" fill="#fff3e0"/><rect x="192" y="148" width="12" height="12" fill="#fff3e0"/><rect x="204" y="148" width="12" height="12" fill="#fff3e0"/><rect x="216" y="148" width="12" height="12" fill="#3a2410"/><rect x="84" y="160" width="12" height="12" fill="#3a2410"/><rect x="96" y="160" width="12" height="12" fill="#ecd3ac"/><rect x="108" y="160" width="12" height="12" fill="#ecd3ac"/><rect x="120" y="160" width="12" height="12" fill="#fff3e0"/><rect x="132" y="160" width="12" height="12" fill="#fff3e0"/><rect x="144" y="160" width="12" height="12" fill="#fff3e0"/><rect x="156" y="160" width="12" height="12" fill="#fff3e0"/><rect x="168" y="160" width="12" height="12" fill="#fff3e0"/><rect x="180" y="160" width="12" height="12" fill="#fff3e0"/><rect x="192" y="160" width="12" height="12" fill="#fff3e0"/><rect x="204" y="160" width="12" height="12" fill="#3a2410"/><rect x="96" y="172" width="12" height="12" fill="#3a2410"/><rect x="108" y="172" width="12" height="12" fill="#ecd3ac"/><rect x="120" y="172" width="12" height="12" fill="#ecd3ac"/><rect x="132" y="172" width="12" height="12" fill="#fff3e0"/><rect x="144" y="172" width="12" height="12" fill="#fff3e0"/><rect x="156" y="172" width="12" height="12" fill="#fff3e0"/><rect x="168" y="172" width="12" height="12" fill="#fff3e0"/><rect x="180" y="172" width="12" height="12" fill="#fff3e0"/><rect x="192" y="172" width="12" height="12" fill="#3a2410"/><rect x="108" y="184" width="12" height="12" fill="#3a2410"/><rect x="120" y="184" width="12" height="12" fill="#3a2410"/><rect x="132" y="184" width="12" height="12" fill="#3a2410"/><rect x="144" y="184" width="12" height="12" fill="#3a2410"/><rect x="156" y="184" width="12" height="12" fill="#3a2410"/><rect x="168" y="184" width="12" height="12" fill="#3a2410"/><rect x="180" y="184" width="12" height="12" fill="#3a2410"/><rect x="120" y="196" width="12" height="12" fill="#d98a2b"/><rect x="180" y="196" width="12" height="12" fill="#d98a2b"/><rect x="108" y="208" width="12" height="12" fill="#d98a2b"/><rect x="120" y="208" width="12" height="12" fill="#d98a2b"/><rect x="180" y="208" width="12" height="12" fill="#d98a2b"/><rect x="192" y="208" width="12" height="12" fill="#d98a2b"/></g><text x="16" y="28" fill="#9e8a69" font-size="11" letter-spacing="2">D.2</text></g><text x="640.0" y="1824" fill="#f6eedc" font-size="13" font-weight="700" letter-spacing="2" text-anchor="middle">VYRABI</text><text x="640.0" y="1840" fill="#9e8a69" font-size="11" text-anchor="middle">klidny zakladni postoj</text><g transform="translate(840,1498)"><rect width="360" height="300" rx="18" fill="#1d150c" stroke="#3f301c"/><ellipse cx="180" cy="258" rx="110" ry="16" fill="url(#cardGround)"/><g shape-rendering="crispEdges"><rect x="156" y="40" width="12" height="12" fill="#ff5a5a"/><rect x="168" y="40" width="12" height="12" fill="#ff5a5a"/><rect x="144" y="52" width="12" height="12" fill="#ff5a5a"/><rect x="156" y="52" width="12" height="12" fill="#ff5a5a"/><rect x="168" y="52" width="12" height="12" fill="#ff5a5a"/><rect x="180" y="52" width="12" height="12" fill="#ff5a5a"/><rect x="144" y="64" width="12" height="12" fill="#3a2410"/><rect x="156" y="64" width="12" height="12" fill="#fff3e0"/><rect x="168" y="64" width="12" height="12" fill="#fff3e0"/><rect x="180" y="64" width="12" height="12" fill="#fff3e0"/><rect x="192" y="64" width="12" height="12" fill="#3a2410"/><rect x="132" y="76" width="12" height="12" fill="#3a2410"/><rect x="144" y="76" width="12" height="12" fill="#fff3e0"/><rect x="156" y="76" width="12" height="12" fill="#fff3e0"/><rect x="168" y="76" width="12" height="12" fill="#fff3e0"/><rect x="180" y="76" width="12" height="12" fill="#fff3e0"/><rect x="192" y="76" width="12" height="12" fill="#fff3e0"/><rect x="204" y="76" width="12" height="12" fill="#3a2410"/><rect x="132" y="88" width="12" height="12" fill="#3a2410"/><rect x="144" y="88" width="12" height="12" fill="#fff3e0"/><rect x="156" y="88" width="12" height="12" fill="#33220f"/><rect x="168" y="88" width="12" height="12" fill="#fff3e0"/><rect x="180" y="88" width="12" height="12" fill="#fff3e0"/><rect x="192" y="88" width="12" height="12" fill="#fff3e0"/><rect x="204" y="88" width="12" height="12" fill="#3a2410"/><rect x="216" y="88" width="12" height="12" fill="#ffb340"/><rect x="228" y="88" width="12" height="12" fill="#ffb340"/><rect x="132" y="100" width="12" height="12" fill="#3a2410"/><rect x="144" y="100" width="12" height="12" fill="#fff3e0"/><rect x="156" y="100" width="12" height="12" fill="#fff3e0"/><rect x="168" y="100" width="12" height="12" fill="#fff3e0"/><rect x="180" y="100" width="12" height="12" fill="#fff3e0"/><rect x="192" y="100" width="12" height="12" fill="#fff3e0"/><rect x="204" y="100" width="12" height="12" fill="#3a2410"/><rect x="216" y="100" width="12" height="12" fill="#ff5a5a"/><rect x="96" y="112" width="12" height="12" fill="#3a2410"/><rect x="108" y="112" width="12" height="12" fill="#3a2410"/><rect x="144" y="112" width="12" height="12" fill="#3a2410"/><rect x="156" y="112" width="12" height="12" fill="#fff3e0"/><rect x="168" y="112" width="12" height="12" fill="#fff3e0"/><rect x="180" y="112" width="12" height="12" fill="#fff3e0"/><rect x="192" y="112" width="12" height="12" fill="#fff3e0"/><rect x="204" y="112" width="12" height="12" fill="#3a2410"/><rect x="252" y="112" width="12" height="12" fill="#ffd75e"/><rect x="84" y="124" width="12" height="12" fill="#3a2410"/><rect x="96" y="124" width="12" height="12" fill="#fff3e0"/><rect x="108" y="124" width="12" height="12" fill="#fff3e0"/><rect x="120" y="124" width="12" height="12" fill="#3a2410"/><rect x="132" y="124" width="12" height="12" fill="#3a2410"/><rect x="144" y="124" width="12" height="12" fill="#fff3e0"/><rect x="156" y="124" width="12" height="12" fill="#fff3e0"/><rect x="168" y="124" width="12" height="12" fill="#fff3e0"/><rect x="180" y="124" width="12" height="12" fill="#fff3e0"/><rect x="192" y="124" width="12" height="12" fill="#fff3e0"/><rect x="204" y="124" width="12" height="12" fill="#fff3e0"/><rect x="216" y="124" width="12" height="12" fill="#3a2410"/><rect x="84" y="136" width="12" height="12" fill="#3a2410"/><rect x="96" y="136" width="12" height="12" fill="#fff3e0"/><rect x="108" y="136" width="12" height="12" fill="#fff3e0"/><rect x="120" y="136" width="12" height="12" fill="#fff3e0"/><rect x="132" y="136" width="12" height="12" fill="#fff3e0"/><rect x="144" y="136" width="12" height="12" fill="#fff3e0"/><rect x="156" y="136" width="12" height="12" fill="#fff3e0"/><rect x="168" y="136" width="12" height="12" fill="#fff3e0"/><rect x="180" y="136" width="12" height="12" fill="#fff3e0"/><rect x="192" y="136" width="12" height="12" fill="#fff3e0"/><rect x="204" y="136" width="12" height="12" fill="#fff3e0"/><rect x="216" y="136" width="12" height="12" fill="#3a2410"/><rect x="84" y="148" width="12" height="12" fill="#3a2410"/><rect x="96" y="148" width="12" height="12" fill="#ecd3ac"/><rect x="108" y="148" width="12" height="12" fill="#fff3e0"/><rect x="120" y="148" width="12" height="12" fill="#fff3e0"/><rect x="132" y="148" width="12" height="12" fill="#fff3e0"/><rect x="144" y="148" width="12" height="12" fill="#fff3e0"/><rect x="156" y="148" width="12" height="12" fill="#fff3e0"/><rect x="168" y="148" width="12" height="12" fill="#fff3e0"/><rect x="180" y="148" width="12" height="12" fill="#fff3e0"/><rect x="192" y="148" width="12" height="12" fill="#fff3e0"/><rect x="204" y="148" width="12" height="12" fill="#fff3e0"/><rect x="216" y="148" width="12" height="12" fill="#3a2410"/><rect x="72" y="160" width="12" height="12" fill="#fff7ea"/><rect x="84" y="160" width="12" height="12" fill="#fff7ea"/><rect x="96" y="160" width="12" height="12" fill="#3a2410"/><rect x="108" y="160" width="12" height="12" fill="#ecd3ac"/><rect x="120" y="160" width="12" height="12" fill="#ecd3ac"/><rect x="132" y="160" width="12" height="12" fill="#fff3e0"/><rect x="144" y="160" width="12" height="12" fill="#fff3e0"/><rect x="156" y="160" width="12" height="12" fill="#fff3e0"/><rect x="168" y="160" width="12" height="12" fill="#fff3e0"/><rect x="180" y="160" width="12" height="12" fill="#fff3e0"/><rect x="192" y="160" width="12" height="12" fill="#fff3e0"/><rect x="204" y="160" width="12" height="12" fill="#3a2410"/><rect x="72" y="172" width="12" height="12" fill="#fff7ea"/><rect x="84" y="172" width="12" height="12" fill="#fff7ea"/><rect x="96" y="172" width="12" height="12" fill="#fff7ea"/><rect x="108" y="172" width="12" height="12" fill="#fff7ea"/><rect x="120" y="172" width="12" height="12" fill="#ecd3ac"/><rect x="132" y="172" width="12" height="12" fill="#ecd3ac"/><rect x="144" y="172" width="12" height="12" fill="#fff3e0"/><rect x="156" y="172" width="12" height="12" fill="#fff3e0"/><rect x="168" y="172" width="12" height="12" fill="#fff3e0"/><rect x="180" y="172" width="12" height="12" fill="#fff3e0"/><rect x="192" y="172" width="12" height="12" fill="#3a2410"/><rect x="72" y="184" width="12" height="12" fill="#fff7ea"/><rect x="84" y="184" width="12" height="12" fill="#fff7ea"/><rect x="96" y="184" width="12" height="12" fill="#fff7ea"/><rect x="108" y="184" width="12" height="12" fill="#fff7ea"/><rect x="120" y="184" width="12" height="12" fill="#3a2410"/><rect x="132" y="184" width="12" height="12" fill="#3a2410"/><rect x="144" y="184" width="12" height="12" fill="#3a2410"/><rect x="156" y="184" width="12" height="12" fill="#3a2410"/><rect x="168" y="184" width="12" height="12" fill="#3a2410"/><rect x="180" y="184" width="12" height="12" fill="#3a2410"/><rect x="84" y="196" width="12" height="12" fill="#fff7ea"/><rect x="96" y="196" width="12" height="12" fill="#fff7ea"/><rect x="120" y="196" width="12" height="12" fill="#d98a2b"/><rect x="180" y="196" width="12" height="12" fill="#d98a2b"/><rect x="108" y="208" width="12" height="12" fill="#d98a2b"/><rect x="120" y="208" width="12" height="12" fill="#d98a2b"/><rect x="180" y="208" width="12" height="12" fill="#d98a2b"/><rect x="192" y="208" width="12" height="12" fill="#d98a2b"/></g><text x="16" y="28" fill="#9e8a69" font-size="11" letter-spacing="2">D.3</text></g><text x="1020.0" y="1824" fill="#f6eedc" font-size="13" font-weight="700" letter-spacing="2" text-anchor="middle">HOTOVO</text><text x="1020.0" y="1840" fill="#9e8a69" font-size="11" text-anchor="middle">vejce + zlata zare</text></svg>