<svg xmlns="http://www.w3.org/2000/svg" viewBox="34 31 270 240" role="img" aria-label="chicken-ready"><defs>
<radialGradient id="cream" cx="0.4" cy="0.35" r="0.95"><stop offset="0" stop-color="#fffaf0"/><stop offset="0.65" stop-color="#fff3e0"/><stop offset="1" stop-color="#efd6b0"/></radialGradient>
<radialGradient id="tan" cx="0.4" cy="0.35" r="0.95"><stop offset="0" stop-color="#e3b877"/><stop offset="0.7" stop-color="#d3a35d"/><stop offset="1" stop-color="#b5854a"/></radialGradient>
<radialGradient id="wool" cx="0.4" cy="0.35" r="0.95"><stop offset="0" stop-color="#fffdf6"/><stop offset="0.7" stop-color="#f7ecd8"/><stop offset="1" stop-color="#e3d2b4"/></radialGradient>
<radialGradient id="face" cx="0.4" cy="0.35" r="0.95"><stop offset="0" stop-color="#7d5940"/><stop offset="1" stop-color="#5a3d2a"/></radialGradient>
<radialGradient id="brown" cx="0.4" cy="0.35" r="0.95"><stop offset="0" stop-color="#c98a44"/><stop offset="0.7" stop-color="#b5722f"/><stop offset="1" stop-color="#96591f"/></radialGradient>
<radialGradient id="dogfur" cx="0.4" cy="0.35" r="0.95"><stop offset="0" stop-color="#e8a860"/><stop offset="0.7" stop-color="#d98f47"/><stop offset="1" stop-color="#b06a2e"/></radialGradient>
<radialGradient id="foxfur" cx="0.4" cy="0.35" r="0.95"><stop offset="0" stop-color="#f08a3c"/><stop offset="0.7" stop-color="#e0702a"/><stop offset="1" stop-color="#c9531f"/></radialGradient>
<linearGradient id="pail" x1="0" y1="0" x2="1" y2="0"><stop offset="0" stop-color="#aeb9c6"/><stop offset="0.5" stop-color="#dfe6ee"/><stop offset="1" stop-color="#93a0ae"/></linearGradient>
<radialGradient id="glow"><stop offset="0" stop-color="#ffd75e" stop-opacity="0.55"/><stop offset="1" stop-color="#ffd75e" stop-opacity="0"/></radialGradient>
<filter id="dim"><feColorMatrix type="saturate" values="0.4"/><feComponentTransfer><feFuncR type="linear" slope="0.75"/><feFuncG type="linear" slope="0.75"/><feFuncB type="linear" slope="0.78"/></feComponentTransfer></filter>
<radialGradient id="ground" cx="0.5" cy="0.5" r="0.5"><stop offset="0" stop-color="#000" stop-opacity="0.3"/><stop offset="1" stop-color="#000" stop-opacity="0"/></radialGradient>
</defs><g id="art"><g transform="rotate(-2 180 170)"><ellipse cx="104" cy="128" rx="27" ry="16" fill="#e8c9a0" transform="rotate(-32 104 128)"/><ellipse cx="96" cy="146" rx="25" ry="14" fill="#e8c9a0" transform="rotate(-8 96 146)"/><ellipse cx="101" cy="162" rx="22" ry="12" fill="#e8c9a0" transform="rotate(14 101 162)"/><ellipse cx="170" cy="165" rx="78" ry="60" fill="url(#cream)"/><ellipse cx="213" cy="125" rx="42" ry="48" fill="url(#cream)"/><circle cx="238" cy="95" r="36" fill="url(#cream)"/><g fill="#ff6b6b"><circle cx="222" cy="60" r="11"/><circle cx="238" cy="52" r="12"/><circle cx="254" cy="60" r="11"/></g><polygon points="270,88 297,97 270,107" fill="#ffb340"/><polygon points="270,97 297,97 270,107" fill="#e8931f"/><ellipse cx="261" cy="118" rx="8" ry="12" fill="#ff6b6b"/><path d="M240 90 q7 -7 14 0" stroke="#33220f" stroke-width="3.5" fill="none" stroke-linecap="round"/><ellipse cx="152" cy="170" rx="42" ry="30" fill="#f0d2ab" transform="rotate(-14 152 170)"/><path d="M120 178 q30 16 62 6 M126 190 q26 12 50 4" stroke="#d9b586" stroke-width="3" fill="none" stroke-linecap="round"/><g stroke="#d98a2b" stroke-width="5" stroke-linecap="round"><path d="M150 222 L148 250 M140 250 L158 250"/><path d="M192 222 L194 250 M184 250 L202 250"/></g></g><circle cx="80" cy="225" r="42" fill="url(#glow)"/><ellipse cx="80" cy="228" rx="20" ry="26" fill="#fff7ea" stroke="#e8d3ae" stroke-width="2"/><path d="M48 181 L50.1 185.9 L55 188 L50.1 190.1 L48 195 L45.9 190.1 L41 188 L45.9 185.9 Z" fill="#ffd75e"/><path d="M116 187 L117.5 190.5 L121 192 L117.5 193.5 L116 197 L114.5 193.5 L111 192 L114.5 190.5 Z" fill="#ffd75e"/></g></svg>