<svg xmlns="http://www.w3.org/2000/svg" viewBox="59 48 243 204" role="img" aria-label="cow-producing"><defs>
<radialGradient id="cream" cx="0.4" cy="0.35" r="0.95"><stop offset="0" stop-color="#fffaf0"/><stop offset="0.65" stop-color="#fff3e0"/><stop offset="1" stop-color="#efd6b0"/></radialGradient>
<radialGradient id="tan" cx="0.4" cy="0.35" r="0.95"><stop offset="0" stop-color="#e3b877"/><stop offset="0.7" stop-color="#d3a35d"/><stop offset="1" stop-color="#b5854a"/></radialGradient>
<radialGradient id="wool" cx="0.4" cy="0.35" r="0.95"><stop offset="0" stop-color="#fffdf6"/><stop offset="0.7" stop-color="#f7ecd8"/><stop offset="1" stop-color="#e3d2b4"/></radialGradient>
<radialGradient id="face" cx="0.4" cy="0.35" r="0.95"><stop offset="0" stop-color="#7d5940"/><stop offset="1" stop-color="#5a3d2a"/></radialGradient>
<radialGradient id="brown" cx="0.4" cy="0.35" r="0.95"><stop offset="0" stop-color="#c98a44"/><stop offset="0.7" stop-color="#b5722f"/><stop offset="1" stop-color="#96591f"/></radialGradient>
<radialGradient id="dogfur" cx="0.4" cy="0.35" r="0.95"><stop offset="0" stop-color="#e8a860"/><stop offset="0.7" stop-color="#d98f47"/><stop offset="1" stop-color="#b06a2e"/></radialGradient>
<radialGradient id="foxfur" cx="0.4" cy="0.35" r="0.95"><stop offset="0" stop-color="#f08a3c"/><stop offset="0.7" stop-color="#e0702a"/><stop offset="1" stop-color="#c9531f"/></radialGradient>
<linearGradient id="pail" x1="0" y1="0" x2="1" y2="0"><stop offset="0" stop-color="#aeb9c6"/><stop offset="0.5" stop-color="#dfe6ee"/><stop offset="1" stop-color="#93a0ae"/></linearGradient>
<radialGradient id="glow"><stop offset="0" stop-color="#ffd75e" stop-opacity="0.55"/><stop offset="1" stop-color="#ffd75e" stop-opacity="0"/></radialGradient>
<filter id="dim"><feColorMatrix type="saturate" values="0.4"/><feComponentTransfer><feFuncR type="linear" slope="0.75"/><feFuncG type="linear" slope="0.75"/><feFuncB type="linear" slope="0.78"/></feComponentTransfer></filter>
<radialGradient id="ground" cx="0.5" cy="0.5" r="0.5"><stop offset="0" stop-color="#000" stop-opacity="0.3"/><stop offset="1" stop-color="#000" stop-opacity="0"/></radialGradient>
</defs><g id="art"><rect x="112" y="195" width="11" height="53" rx="5" fill="#f3e6d0"/><rect x="111" y="238" width="13" height="10" rx="4" fill="#6a4a33"/><rect x="142" y="195" width="11" height="53" rx="5" fill="#f3e6d0"/><rect x="141" y="238" width="13" height="10" rx="4" fill="#6a4a33"/><rect x="202" y="195" width="11" height="53" rx="5" fill="#f3e6d0"/><rect x="201" y="238" width="13" height="10" rx="4" fill="#6a4a33"/><rect x="232" y="195" width="11" height="53" rx="5" fill="#f3e6d0"/><rect x="231" y="238" width="13" height="10" rx="4" fill="#6a4a33"/><path d="M88 140 q-20 4 -18 24 q8 -4 16 -2 z" fill="#f3e6d0"/><circle cx="72" cy="168" r="9" fill="#e8c9a0"/><ellipse cx="170" cy="160" rx="88" ry="54" fill="url(#cream)"/><path d="M120 128 q30 -14 52 4 q10 22 -12 34 q-34 6 -46 -12 q-6 -16 6 -26 z" fill="#4a3626"/><ellipse cx="216" cy="188" rx="26" ry="18" fill="#4a3626"/><ellipse cx="180" cy="208" rx="24" ry="14" fill="#f2b8c6"/><ellipse cx="252" cy="106" rx="34" ry="32" fill="url(#cream)"/><path d="M228 88 q6 -18 24 -12 q-10 10 -8 18 z" fill="#4a3626"/><path d="M232 74 q-4 -16 12 -18 q-4 10 0 16 z" fill="#e9c78f"/><path d="M270 72 q6 -16 -10 -20 q4 10 -2 16 z" fill="#e9c78f"/><ellipse cx="222" cy="96" rx="14" ry="8" fill="#e8c9a0" transform="rotate(-18 222 96)"/><ellipse cx="282" cy="94" rx="14" ry="8" fill="#e8c9a0" transform="rotate(18 282 94)"/><ellipse cx="256" cy="126" rx="22" ry="13" fill="#f2b8c6"/><circle cx="248" cy="126" r="2.6" fill="#c4798f"/><circle cx="264" cy="126" r="2.6" fill="#c4798f"/><circle cx="244" cy="102" r="4.5" fill="#33220f"/><circle cx="246" cy="100" r="1.575" fill="#fff"/><circle cx="268" cy="102" r="4.5" fill="#33220f"/><circle cx="270" cy="100" r="1.575" fill="#fff"/></g></svg>