<svg xmlns="http://www.w3.org/2000/svg" viewBox="115 52 155 204" role="img" aria-label="dog"><defs>
<radialGradient id="cream" cx="0.4" cy="0.35" r="0.95"><stop offset="0" stop-color="#fffaf0"/><stop offset="0.65" stop-color="#fff3e0"/><stop offset="1" stop-color="#efd6b0"/></radialGradient>
<radialGradient id="tan" cx="0.4" cy="0.35" r="0.95"><stop offset="0" stop-color="#e3b877"/><stop offset="0.7" stop-color="#d3a35d"/><stop offset="1" stop-color="#b5854a"/></radialGradient>
<radialGradient id="wool" cx="0.4" cy="0.35" r="0.95"><stop offset="0" stop-color="#fffdf6"/><stop offset="0.7" stop-color="#f7ecd8"/><stop offset="1" stop-color="#e3d2b4"/></radialGradient>
<radialGradient id="face" cx="0.4" cy="0.35" r="0.95"><stop offset="0" stop-color="#7d5940"/><stop offset="1" stop-color="#5a3d2a"/></radialGradient>
<radialGradient id="brown" cx="0.4" cy="0.35" r="0.95"><stop offset="0" stop-color="#c98a44"/><stop offset="0.7" stop-color="#b5722f"/><stop offset="1" stop-color="#96591f"/></radialGradient>
<radialGradient id="dogfur" cx="0.4" cy="0.35" r="0.95"><stop offset="0" stop-color="#e8a860"/><stop offset="0.7" stop-color="#d98f47"/><stop offset="1" stop-color="#b06a2e"/></radialGradient>
<radialGradient id="foxfur" cx="0.4" cy="0.35" r="0.95"><stop offset="0" stop-color="#f08a3c"/><stop offset="0.7" stop-color="#e0702a"/><stop offset="1" stop-color="#c9531f"/></radialGradient>
<linearGradient id="pail" x1="0" y1="0" x2="1" y2="0"><stop offset="0" stop-color="#aeb9c6"/><stop offset="0.5" stop-color="#dfe6ee"/><stop offset="1" stop-color="#93a0ae"/></linearGradient>
<radialGradient id="glow"><stop offset="0" stop-color="#ffd75e" stop-opacity="0.55"/><stop offset="1" stop-color="#ffd75e" stop-opacity="0"/></radialGradient>
<filter id="dim"><feColorMatrix type="saturate" values="0.4"/><feComponentTransfer><feFuncR type="linear" slope="0.75"/><feFuncG type="linear" slope="0.75"/><feFuncB type="linear" slope="0.78"/></feComponentTransfer></filter>
<radialGradient id="ground" cx="0.5" cy="0.5" r="0.5"><stop offset="0" stop-color="#000" stop-opacity="0.3"/><stop offset="1" stop-color="#000" stop-opacity="0"/></radialGradient>
</defs><g id="art"><path d="M150 250 q-10 -66 34 -96 q40 -26 58 6 q10 22 -4 42 l4 48 z" fill="url(#dogfur)"/><path d="M148 252 q-34 -6 -28 -34 q22 2 34 18 z" fill="url(#dogfur)"/><circle cx="226" cy="120" r="40" fill="url(#dogfur)"/><path d="M196 92 q-6 -26 12 -30 q8 14 4 28 z" fill="#c47a3a"/><path d="M250 88 q8 -26 -10 -32 q-8 14 -2 28 z" fill="#c47a3a"/><ellipse cx="238" cy="138" rx="16" ry="11" fill="#f4dcbc"/><ellipse cx="244" cy="132" rx="4.5" ry="3.5" fill="#33220f"/><path d="M238 142 q3 7 9 6" stroke="#b06a2e" stroke-width="2.5" fill="none" stroke-linecap="round"/><path d="M211 116 q7 -7 14 0" stroke="#33220f" stroke-width="3.5" fill="none" stroke-linecap="round"/><path d="M162 250 l64 0" stroke="#c47a3a" stroke-width="10" stroke-linecap="round"/><path d="M198 158 q28 14 52 -4" stroke="#b4413a" stroke-width="9" fill="none"/><circle cx="228" cy="164" r="7" fill="#ffd75e"/></g></svg>