<svg xmlns="http://www.w3.org/2000/svg" viewBox="38 124 267 128" role="img" aria-label="fox"><defs>
<radialGradient id="cream" cx="0.4" cy="0.35" r="0.95"><stop offset="0" stop-color="#fffaf0"/><stop offset="0.65" stop-color="#fff3e0"/><stop offset="1" stop-color="#efd6b0"/></radialGradient>
<radialGradient id="tan" cx="0.4" cy="0.35" r="0.95"><stop offset="0" stop-color="#e3b877"/><stop offset="0.7" stop-color="#d3a35d"/><stop offset="1" stop-color="#b5854a"/></radialGradient>
<radialGradient id="wool" cx="0.4" cy="0.35" r="0.95"><stop offset="0" stop-color="#fffdf6"/><stop offset="0.7" stop-color="#f7ecd8"/><stop offset="1" stop-color="#e3d2b4"/></radialGradient>
<radialGradient id="face" cx="0.4" cy="0.35" r="0.95"><stop offset="0" stop-color="#7d5940"/><stop offset="1" stop-color="#5a3d2a"/></radialGradient>
<radialGradient id="brown" cx="0.4" cy="0.35" r="0.95"><stop offset="0" stop-color="#c98a44"/><stop offset="0.7" stop-color="#b5722f"/><stop offset="1" stop-color="#96591f"/></radialGradient>
<radialGradient id="dogfur" cx="0.4" cy="0.35" r="0.95"><stop offset="0" stop-color="#e8a860"/><stop offset="0.7" stop-color="#d98f47"/><stop offset="1" stop-color="#b06a2e"/></radialGradient>
<radialGradient id="foxfur" cx="0.4" cy="0.35" r="0.95"><stop offset="0" stop-color="#f08a3c"/><stop offset="0.7" stop-color="#e0702a"/><stop offset="1" stop-color="#c9531f"/></radialGradient>
<linearGradient id="pail" x1="0" y1="0" x2="1" y2="0"><stop offset="0" stop-color="#aeb9c6"/><stop offset="0.5" stop-color="#dfe6ee"/><stop offset="1" stop-color="#93a0ae"/></linearGradient>
<radialGradient id="glow"><stop offset="0" stop-color="#ffd75e" stop-opacity="0.55"/><stop offset="1" stop-color="#ffd75e" stop-opacity="0"/></radialGradient>
<filter id="dim"><feColorMatrix type="saturate" values="0.4"/><feComponentTransfer><feFuncR type="linear" slope="0.75"/><feFuncG type="linear" slope="0.75"/><feFuncB type="linear" slope="0.78"/></feComponentTransfer></filter>
<radialGradient id="ground" cx="0.5" cy="0.5" r="0.5"><stop offset="0" stop-color="#000" stop-opacity="0.3"/><stop offset="1" stop-color="#000" stop-opacity="0"/></radialGradient>
</defs><g id="art"><path d="M60 206 q-24 -18 -12 -40 q18 2 26 22 q40 -22 96 -16 q44 6 66 30" fill="none"/><path d="M64 196 q-28 -10 -20 -38 q22 0 32 22 q6 10 -12 16 z" fill="url(#foxfur)"/><circle cx="56" cy="170" r="12" fill="#fdf6ea"/><ellipse cx="160" cy="196" rx="86" ry="34" fill="url(#foxfur)"/><ellipse cx="248" cy="178" rx="34" ry="26" fill="url(#foxfur)"/><path d="M274 180 q20 2 24 10 q-14 6 -26 0 z" fill="url(#foxfur)"/><ellipse cx="252" cy="196" rx="18" ry="10" fill="#fdf6ea"/><circle cx="297" cy="188" r="3.6" fill="#33220f"/><path d="M226 158 q-4 -20 10 -24 q6 12 2 24 z" fill="#c9531f"/><path d="M258 154 q8 -20 -8 -26 q-6 12 -2 24 z" fill="#c9531f"/><path d="M240 172 q7 -6 14 1" stroke="#33220f" stroke-width="3.5" fill="none" stroke-linecap="round"/><rect x="108" y="224" width="10" height="24" rx="5" fill="#7a3d16"/><rect x="196" y="224" width="10" height="24" rx="5" fill="#7a3d16"/></g></svg>