<svg xmlns="http://www.w3.org/2000/svg" viewBox="76 46 234 173" role="img" aria-label="goat-hungry"><defs>
<radialGradient id="cream" cx="0.4" cy="0.35" r="0.95"><stop offset="0" stop-color="#fffaf0"/><stop offset="0.65" stop-color="#fff3e0"/><stop offset="1" stop-color="#efd6b0"/></radialGradient>
<radialGradient id="tan" cx="0.4" cy="0.35" r="0.95"><stop offset="0" stop-color="#e3b877"/><stop offset="0.7" stop-color="#d3a35d"/><stop offset="1" stop-color="#b5854a"/></radialGradient>
<radialGradient id="wool" cx="0.4" cy="0.35" r="0.95"><stop offset="0" stop-color="#fffdf6"/><stop offset="0.7" stop-color="#f7ecd8"/><stop offset="1" stop-color="#e3d2b4"/></radialGradient>
<radialGradient id="face" cx="0.4" cy="0.35" r="0.95"><stop offset="0" stop-color="#7d5940"/><stop offset="1" stop-color="#5a3d2a"/></radialGradient>
<radialGradient id="brown" cx="0.4" cy="0.35" r="0.95"><stop offset="0" stop-color="#c98a44"/><stop offset="0.7" stop-color="#b5722f"/><stop offset="1" stop-color="#96591f"/></radialGradient>
<radialGradient id="dogfur" cx="0.4" cy="0.35" r="0.95"><stop offset="0" stop-color="#e8a860"/><stop offset="0.7" stop-color="#d98f47"/><stop offset="1" stop-color="#b06a2e"/></radialGradient>
<radialGradient id="foxfur" cx="0.4" cy="0.35" r="0.95"><stop offset="0" stop-color="#f08a3c"/><stop offset="0.7" stop-color="#e0702a"/><stop offset="1" stop-color="#c9531f"/></radialGradient>
<linearGradient id="pail" x1="0" y1="0" x2="1" y2="0"><stop offset="0" stop-color="#aeb9c6"/><stop offset="0.5" stop-color="#dfe6ee"/><stop offset="1" stop-color="#93a0ae"/></linearGradient>
<radialGradient id="glow"><stop offset="0" stop-color="#ffd75e" stop-opacity="0.55"/><stop offset="1" stop-color="#ffd75e" stop-opacity="0"/></radialGradient>
<filter id="dim"><feColorMatrix type="saturate" values="0.4"/><feComponentTransfer><feFuncR type="linear" slope="0.75"/><feFuncG type="linear" slope="0.75"/><feFuncB type="linear" slope="0.78"/></feComponentTransfer></filter>
<radialGradient id="ground" cx="0.5" cy="0.5" r="0.5"><stop offset="0" stop-color="#000" stop-opacity="0.3"/><stop offset="1" stop-color="#000" stop-opacity="0"/></radialGradient>
</defs><g id="art"><g transform="translate(0,24) scale(1,0.9)"><path d="M262 62 q26 -26 44 -14 q-22 2 -30 24 z" fill="#8a6a3f"/><path d="M250 60 q10 -30 32 -30 q-16 10 -18 34 z" fill="#9d7c4e"/><path d="M92 128 q-16 -10 -10 -28 q10 12 22 12 z" fill="#c99a56"/><ellipse cx="170" cy="160" rx="85" ry="52" fill="url(#tan)"/><ellipse cx="240" cy="112" rx="38" ry="42" fill="url(#tan)"/><ellipse cx="268" cy="92" rx="30" ry="26" fill="url(#tan)"/><ellipse cx="238" cy="84" rx="10" ry="20" fill="#b5854a" transform="rotate(24 238 84)"/><ellipse cx="290" cy="102" rx="15" ry="12" fill="#e9c78f"/><circle cx="295" cy="99" r="2.2" fill="#7a5a35"/><path d="M284 112 q4 18 -6 24 q-4 -14 -2 -22 z" fill="#b5854a"/><path d="M261 88 q7 5 14 0" stroke="#33220f" stroke-width="3.5" fill="none" stroke-linecap="round"/><ellipse cx="150" cy="165" rx="44" ry="30" fill="#c08e4e" opacity="0.55" transform="rotate(-10 150 165)"/></g></g></svg>