<svg xmlns="http://www.w3.org/2000/svg" viewBox="65 59 245 157" role="img" aria-label="horse-hungry"><defs>
<radialGradient id="cream" cx="0.4" cy="0.35" r="0.95"><stop offset="0" stop-color="#fffaf0"/><stop offset="0.65" stop-color="#fff3e0"/><stop offset="1" stop-color="#efd6b0"/></radialGradient>
<radialGradient id="tan" cx="0.4" cy="0.35" r="0.95"><stop offset="0" stop-color="#e3b877"/><stop offset="0.7" stop-color="#d3a35d"/><stop offset="1" stop-color="#b5854a"/></radialGradient>
<radialGradient id="wool" cx="0.4" cy="0.35" r="0.95"><stop offset="0" stop-color="#fffdf6"/><stop offset="0.7" stop-color="#f7ecd8"/><stop offset="1" stop-color="#e3d2b4"/></radialGradient>
<radialGradient id="face" cx="0.4" cy="0.35" r="0.95"><stop offset="0" stop-color="#7d5940"/><stop offset="1" stop-color="#5a3d2a"/></radialGradient>
<radialGradient id="brown" cx="0.4" cy="0.35" r="0.95"><stop offset="0" stop-color="#c98a44"/><stop offset="0.7" stop-color="#b5722f"/><stop offset="1" stop-color="#96591f"/></radialGradient>
<radialGradient id="dogfur" cx="0.4" cy="0.35" r="0.95"><stop offset="0" stop-color="#e8a860"/><stop offset="0.7" stop-color="#d98f47"/><stop offset="1" stop-color="#b06a2e"/></radialGradient>
<radialGradient id="foxfur" cx="0.4" cy="0.35" r="0.95"><stop offset="0" stop-color="#f08a3c"/><stop offset="0.7" stop-color="#e0702a"/><stop offset="1" stop-color="#c9531f"/></radialGradient>
<linearGradient id="pail" x1="0" y1="0" x2="1" y2="0"><stop offset="0" stop-color="#aeb9c6"/><stop offset="0.5" stop-color="#dfe6ee"/><stop offset="1" stop-color="#93a0ae"/></linearGradient>
<radialGradient id="glow"><stop offset="0" stop-color="#ffd75e" stop-opacity="0.55"/><stop offset="1" stop-color="#ffd75e" stop-opacity="0"/></radialGradient>
<filter id="dim"><feColorMatrix type="saturate" values="0.4"/><feComponentTransfer><feFuncR type="linear" slope="0.75"/><feFuncG type="linear" slope="0.75"/><feFuncB type="linear" slope="0.78"/></feComponentTransfer></filter>
<radialGradient id="ground" cx="0.5" cy="0.5" r="0.5"><stop offset="0" stop-color="#000" stop-opacity="0.3"/><stop offset="1" stop-color="#000" stop-opacity="0"/></radialGradient>
</defs><g id="art"><g transform="translate(0,24) scale(1,0.9)"><path d="M92 140 q-26 10 -22 52 q14 -8 26 -8 z" fill="#5a3a1c"/><ellipse cx="168" cy="158" rx="82" ry="50" fill="url(#brown)"/><path d="M212 130 q10 -44 44 -58 q30 -12 40 6 l-18 10 q10 2 12 12 l-22 22 q-12 22 -34 26 z" fill="url(#brown)"/><path d="M216 128 q6 -40 42 -56 q-8 18 -4 26 q-14 18 -16 34 z" fill="#5a3a1c"/><path d="M266 62 q2 -16 14 -18 q0 12 -4 18 z" fill="#a5672a"/><ellipse cx="292" cy="92" rx="14" ry="11" fill="#c99a6e"/><circle cx="296" cy="90" r="2.4" fill="#5a3a1c"/><path d="M261 82 q7 5 14 0" stroke="#33220f" stroke-width="3.5" fill="none" stroke-linecap="round"/><ellipse cx="148" cy="164" rx="42" ry="28" fill="#96591f" opacity="0.6" transform="rotate(-10 148 164)"/></g></g></svg>