<svg xmlns="http://www.w3.org/2000/svg" viewBox="74 83 232 158" role="img" aria-label="sheep-hungry"><defs>
<radialGradient id="cream" cx="0.4" cy="0.35" r="0.95"><stop offset="0" stop-color="#fffaf0"/><stop offset="0.65" stop-color="#fff3e0"/><stop offset="1" stop-color="#efd6b0"/></radialGradient>
<radialGradient id="tan" cx="0.4" cy="0.35" r="0.95"><stop offset="0" stop-color="#e3b877"/><stop offset="0.7" stop-color="#d3a35d"/><stop offset="1" stop-color="#b5854a"/></radialGradient>
<radialGradient id="wool" cx="0.4" cy="0.35" r="0.95"><stop offset="0" stop-color="#fffdf6"/><stop offset="0.7" stop-color="#f7ecd8"/><stop offset="1" stop-color="#e3d2b4"/></radialGradient>
<radialGradient id="face" cx="0.4" cy="0.35" r="0.95"><stop offset="0" stop-color="#7d5940"/><stop offset="1" stop-color="#5a3d2a"/></radialGradient>
<radialGradient id="brown" cx="0.4" cy="0.35" r="0.95"><stop offset="0" stop-color="#c98a44"/><stop offset="0.7" stop-color="#b5722f"/><stop offset="1" stop-color="#96591f"/></radialGradient>
<radialGradient id="dogfur" cx="0.4" cy="0.35" r="0.95"><stop offset="0" stop-color="#e8a860"/><stop offset="0.7" stop-color="#d98f47"/><stop offset="1" stop-color="#b06a2e"/></radialGradient>
<radialGradient id="foxfur" cx="0.4" cy="0.35" r="0.95"><stop offset="0" stop-color="#f08a3c"/><stop offset="0.7" stop-color="#e0702a"/><stop offset="1" stop-color="#c9531f"/></radialGradient>
<linearGradient id="pail" x1="0" y1="0" x2="1" y2="0"><stop offset="0" stop-color="#aeb9c6"/><stop offset="0.5" stop-color="#dfe6ee"/><stop offset="1" stop-color="#93a0ae"/></linearGradient>
<radialGradient id="glow"><stop offset="0" stop-color="#ffd75e" stop-opacity="0.55"/><stop offset="1" stop-color="#ffd75e" stop-opacity="0"/></radialGradient>
<filter id="dim"><feColorMatrix type="saturate" values="0.4"/><feComponentTransfer><feFuncR type="linear" slope="0.75"/><feFuncG type="linear" slope="0.75"/><feFuncB type="linear" slope="0.78"/></feComponentTransfer></filter>
<radialGradient id="ground" cx="0.5" cy="0.5" r="0.5"><stop offset="0" stop-color="#000" stop-opacity="0.3"/><stop offset="1" stop-color="#000" stop-opacity="0"/></radialGradient>
</defs><g id="art"><g transform="translate(0,24) scale(1,0.9)"><circle cx="120" cy="150" r="42" fill="url(#wool)"/><circle cx="160" cy="130" r="46" fill="url(#wool)"/><circle cx="205" cy="138" r="44" fill="url(#wool)"/><circle cx="230" cy="160" r="40" fill="url(#wool)"/><circle cx="205" cy="185" r="42" fill="url(#wool)"/><circle cx="160" cy="192" r="44" fill="url(#wool)"/><circle cx="120" cy="180" r="40" fill="url(#wool)"/><circle cx="168" cy="160" r="52" fill="url(#wool)"/><ellipse cx="262" cy="112" rx="27" ry="30" fill="url(#face)"/><ellipse cx="240" cy="106" rx="16" ry="8" fill="#5a3d2a" transform="rotate(-24 240 106)"/><ellipse cx="284" cy="112" rx="16" ry="8" fill="#5a3d2a" transform="rotate(24 284 112)"/><circle cx="252" cy="86" r="14" fill="url(#wool)"/><circle cx="268" cy="82" r="12" fill="url(#wool)"/><path d="M251 110 q7 5 14 0" stroke="#33220f" stroke-width="3.5" fill="none" stroke-linecap="round"/><ellipse cx="266" cy="128" rx="8" ry="5" fill="#8a6a50"/></g></g></svg>